<svg xmlns="http://www.w3.org/2000/svg" width="485.323" height="339.343" viewBox="0 0 485.323 339.343">
  <path id="Shape_13" data-name="Shape 13" d="M4343.4,79.4a40.66,40.66,0,1,1-40.546,40.661A40.648,40.648,0,0,1,4343.4,79.4Zm275.085-248.559c93.016,0,168.691,75.89,168.691,169.172S4711.5,169.184,4618.482,169.184,4449.788,93.294,4449.788.013,4525.46-169.159,4618.482-169.159ZM4524.763.013c0,51.823,42.042,93.984,93.719,93.984S4712.2,51.836,4712.2.013s-42.042-93.985-93.716-93.985S4524.763-51.811,4524.763.013Zm93.719,56.39A56.374,56.374,0,0,0,4674.712.013a56.375,56.375,0,0,0-56.229-56.391A56.374,56.374,0,0,0,4562.25.013,56.374,56.374,0,0,0,4618.482,56.4Z" transform="translate(-4302.351 169.659)" fill="none" stroke="#e5e5e5" stroke-width="1"/>
</svg>
