<svg version="1.1" xmlns="http://www.w3.org/2000/svg" xmlns:xlink="http://www.w3.org/1999/xlink" width="26" height="26"><defs/><g><path fill="rgb(255,255,255)" stroke="none" paint-order="stroke fill markers" fill-rule="evenodd" d=" M 4.53537905216217 2.4222309589385986 C 4.53537905216217 2.4222309589385986 23.546449780464172 21.406412839889526 23.546449780464172 21.406412839889526 C 24.12900412082672 21.988810002803802 24.12900412082672 22.932946503162384 23.546449780464172 23.51566070318222 C 22.96294355392456 24.098057866096497 22.01676869392395 24.098057866096497 21.4342143535614 23.51566070318222 C 21.4342143535614 23.51566070318222 2.4221917390823364 4.531795859336853 2.4221917390823364 4.531795859336853 C 1.8396373987197876 3.9490816593170166 1.8396373987197876 3.0046281218528748 2.4221917390823364 2.4222309589385986 C 3.0066498517990112 1.8398337960243225 3.9518728256225586 1.8398337960243225 4.53537905216217 2.4222309589385986 Z M 2.4221917390823364 21.437482476234436 C 2.4221917390823364 21.437482476234436 21.4342143535614 2.4533005952835083 21.4342143535614 2.4533005952835083 C 22.01676869392395 1.8709034323692322 22.96294355392456 1.8709034323692322 23.546449780464172 2.4533005952835083 C 24.12900412082672 3.0356977581977844 24.12900412082672 3.9801512956619263 23.546449780464172 4.562865495681763 C 23.546449780464172 4.562865495681763 4.53537905216217 23.54673033952713 4.53537905216217 23.54673033952713 C 3.9518728256225586 24.129127502441406 3.0066498517990112 24.129127502441406 2.4221917390823364 23.54673033952713 C 1.8396373987197876 22.964016139507294 1.8396373987197876 22.019879639148712 2.4221917390823364 21.437482476234436 Z"/></g></svg>