<svg width="1329" height="742" xmlns="http://www.w3.org/2000/svg" xmlns:xlink="http://www.w3.org/1999/xlink" xmlns:svgjs="http://svgjs.com/svgjs"><svg width="495" height="682" xmlns="http://www.w3.org/2000/svg" xmlns:xlink="http://www.w3.org/1999/xlink" xmlns:svgjs="http://svgjs.com/svgjs" fill="none" stroke-miterlimit="100" stroke="#e5e5e5" y="60"><svg xmlns="http://www.w3.org/2000/svg" xmlns:xlink="http://www.w3.org/1999/xlink" width="495" height="682"><path paint-order="stroke fill markers" d="M490.996 420.958c21.108 111.368-48.633 218.185-155.91 238.792l-94.377 18.002C133.38 698.084 29.214 624.441 7.842 513.122L5.1 498.752C-23.805 347.222 160.673 1.805 160.673 1.805s300.17 261.077 327.582 404.781l2.741 14.372z"/></svg></svg><svg width="487" height="171" xmlns="http://www.w3.org/2000/svg" xmlns:xlink="http://www.w3.org/1999/xlink" xmlns:svgjs="http://svgjs.com/svgjs" fill="none" stroke-miterlimit="100" stroke="#e5e5e5" x="842"><svg xmlns="http://www.w3.org/2000/svg" xmlns:xlink="http://www.w3.org/1999/xlink" width="487" height="171"><path paint-order="stroke fill markers" d="M42.398 250.4c22.355 0 40.542 18.24 40.542 40.66 0 22.42-18.187 40.66-40.542 40.66-22.358 0-40.547-18.24-40.547-40.66 0-22.42 18.189-40.66 40.547-40.66zM317.482 171c93.017 0 168.692 0 168.692.013 0 93.28-75.675 169.17-168.692 169.17-93.022 0-168.694-75.89-168.694-169.17 0-.013 75.672-.013 168.694-.013zm-93.719.013c0 51.823 42.042 93.984 93.72 93.984 51.673 0 93.715-42.161 93.715-93.984 0-.013-42.042-.013-93.716-.013-51.677 0-93.719 0-93.719.013zm93.72 56.39c31.004 0 56.23-25.297 56.23-56.39 0-.013-25.226-.013-56.23-.013-31.01 0-56.233 0-56.233.013 0 31.093 25.223 56.39 56.232 56.39z"/></svg></svg><svg width="183" height="121" xmlns="http://www.w3.org/2000/svg" xmlns:xlink="http://www.w3.org/1999/xlink" xmlns:svgjs="http://svgjs.com/svgjs" fill="none" stroke-miterlimit="100" stroke="#e5e5e5" x="1134" y="419"><svg xmlns="http://www.w3.org/2000/svg" width="183" height="121"><path paint-order="stroke fill markers" d="M181.952 38.664c0 44.956-37.304 81.4-83.32 81.4H70.86V92.93c0-44.956 37.303-81.4 83.32-81.4h27.772v27.134zM2.014 23.726c0 11.955 9.956 21.681 22.193 21.681 12.236 0 22.192-9.726 22.192-21.68 0-11.956-9.956-21.682-22.192-21.682-12.237 0-22.193 9.726-22.193 21.681z"/></svg></svg></svg>