<svg version="1.1" xmlns="http://www.w3.org/2000/svg" xmlns:xlink="http://www.w3.org/1999/xlink" width="12" height="22"><defs/><g><path fill="rgb(255,255,255)" stroke="none" paint-order="stroke fill markers" fill-rule="evenodd" d=" M 3.710597276687622 20.00010472536087 C 3.710597276687622 20.00010472536087 3.710597276687622 12.10366153717041 3.710597276687622 12.10366153717041 C 3.710597276687622 12.10366153717041 1.0005773305892944 12.10366153717041 1.0005773305892944 12.10366153717041 C 1.0005773305892944 12.10366153717041 1.0005773305892944 8.45900297164917 1.0005773305892944 8.45900297164917 C 1.0005773305892944 8.45900297164917 3.710597276687622 8.45900297164917 3.710597276687622 8.45900297164917 C 3.710597276687622 8.45900297164917 3.710597276687622 5.91414612531662 3.710597276687622 5.91414612531662 C 3.710597276687622 3.1416566371917725 5.4658753871917725 1.7774459719657898 7.938875675201416 1.7774459719657898 C 9.123022079467773 1.7774459719657898 10.141540288925171 1.865582287311554 10.438528776168823 1.9052119255065918 C 10.438528776168823 1.9052119255065918 10.438528776168823 4.8026140332221985 10.438528776168823 4.8026140332221985 C 10.438528776168823 4.8026140332221985 8.723229885101318 4.803248107433319 8.723229885101318 4.803248107433319 C 7.377262830734253 4.803248107433319 7.07361114025116 5.44271194934845 7.07361114025116 6.380507707595825 C 7.07361114025116 6.380507707595825 7.07361114025116 8.45900297164917 7.07361114025116 8.45900297164917 C 7.07361114025116 8.45900297164917 10.718383312225342 8.45900297164917 10.718383312225342 8.45900297164917 C 10.718383312225342 8.45900297164917 9.503776550292969 12.10366153717041 9.503776550292969 12.10366153717041 C 9.503776550292969 12.10366153717041 7.07361114025116 12.10366153717041 7.07361114025116 12.10366153717041 C 7.07361114025116 12.10366153717041 7.07361114025116 20.00010472536087 7.07361114025116 20.00010472536087 C 7.07361114025116 20.00010472536087 3.710597276687622 20.00010472536087 3.710597276687622 20.00010472536087 Z"/></g></svg>