<svg version="1.1" xmlns="http://www.w3.org/2000/svg" xmlns:xlink="http://www.w3.org/1999/xlink" width="22" height="24"><defs/><g><path fill="rgb(255,255,255)" stroke="none" paint-order="stroke fill markers" fill-rule="evenodd" d=" M 11.000041127204895 3.8024269342422485 C 13.667226195335388 3.8024269342422485 13.982300519943237 3.8125721216201782 15.036038517951965 3.860444724559784 C 15.66809093952179 3.8683706521987915 16.296335816383362 3.9847232699394226 16.890312790870667 4.205064058303833 C 17.7612886428833 4.5417574644088745 18.44950234889984 5.231313169002533 18.785518169403076 6.1031652092933655 C 19.00635576248169 6.697926819324493 19.12153398990631 7.326611399650574 19.130100965499878 7.960685610771179 C 19.177695274353027 9.015468060970306 19.187214136123657 9.332188129425049 19.187214136123657 12.002591669559479 C 19.187214136123657 14.67362928390503 19.177695274353027 14.990032315254211 19.130100965499878 16.04449772834778 C 19.12153398990631 16.678888976573944 19.00635576248169 17.307256519794464 18.785518169403076 17.902335166931152 C 18.44950234889984 18.774504244327545 17.7612886428833 19.463742911815643 16.890312790870667 19.800753355026245 C 16.296335816383362 20.021094143390656 15.66809093952179 20.137129724025726 15.036038517951965 20.145055651664734 C 13.982300519943237 20.19261121749878 13.667226195335388 20.20339047908783 11.000041127204895 20.20339047908783 C 8.332856059074402 20.20339047908783 8.017781734466553 20.19261121749878 6.964043736457825 20.145055651664734 C 6.3319913148880005 20.137129724025726 5.703746438026428 20.021094143390656 5.1097694635391235 19.800753355026245 C 4.238793611526489 19.463742911815643 3.5505799055099487 18.774504244327545 3.214564085006714 17.902335166931152 C 2.9937264919281006 17.307256519794464 2.878548264503479 16.678888976573944 2.870933175086975 16.04449772834778 C 2.8233388662338257 14.990032315254211 2.812868118286133 14.67362928390503 2.812868118286133 12.002591669559479 C 2.812868118286133 9.332188129425049 2.8233388662338257 9.015468060970306 2.870933175086975 7.960685610771179 C 2.878548264503479 7.326611399650574 2.9937264919281006 6.697926819324493 3.214564085006714 6.1031652092933655 C 3.5505799055099487 5.231313169002533 4.238793611526489 4.5417574644088745 5.1097694635391235 4.205064058303833 C 5.703746438026428 3.9847232699394226 6.3319913148880005 3.8683706521987915 6.964043736457825 3.860444724559784 C 8.017781734466553 3.8125721216201782 8.332856059074402 3.8024269342422485 11.000041127204895 3.8024269342422485 C 13.667226195335388 3.8024269342422485 11.000041127204895 3.8024269342422485 11.000041127204895 3.8024269342422485 M 11.000041127204895 1.9997539520263672 C 8.290021181106567 1.9997539520263672 7.948294043540955 2.011167287826538 6.883133411407471 2.0599910020828247 C 6.054040551185608 2.0764769315719604 5.233514666557312 2.2334102988243103 4.457727432250977 2.524450361728668 C 3.115567922592163 3.0450252890586853 2.055166721343994 4.1070995926856995 1.5382925271987915 5.450385808944702 C 1.247015357017517 6.228394865989685 1.089954137802124 7.049838006496429 1.0747239589691162 7.879841148853302 C 1.0242739915847778 8.94571989774704 1.012851357460022 9.287802934646606 1.012851357460022 12.002591669559479 C 1.012851357460022 14.717697441577911 1.0242739915847778 15.059780478477478 1.0728201866149902 16.126927375793457 C 1.089002251625061 16.95693051815033 1.246063470840454 17.778373658657074 1.5373406410217285 18.556065678596497 C 2.055166721343994 19.89966893196106 3.116519808769226 20.961743235588074 4.457727432250977 21.48136705160141 C 5.233514666557312 21.772407114505768 6.054040551185608 21.929657518863678 6.883133411407471 21.946143448352814 C 7.948294043540955 21.99401605129242 8.290021181106567 22.00574642419815 11.000041127204895 22.00574642419815 C 13.711012959480286 22.00574642419815 14.051788210868835 21.99401605129242 15.117900729179382 21.945826411247253 C 15.946993589401245 21.929340481758118 16.766567587852478 21.772090077400208 17.542354822158813 21.48105001449585 C 18.884514331817627 20.961426198482513 19.944915533065796 19.89903485774994 20.463693499565125 18.555748641490936 C 20.754018783569336 17.778056621551514 20.91108000278473 16.95629644393921 20.926310181617737 16.126293301582336 C 20.975808262825012 15.059780478477478 20.986279010772705 14.717697441577911 20.986279010772705 12.002591669559479 C 20.986279010772705 9.287802934646606 20.975808262825012 8.94571989774704 20.926310181617737 7.878573000431061 C 20.91108000278473 7.048569858074188 20.754018783569336 6.227126717567444 20.46274161338806 5.449434697628021 C 19.943963646888733 4.1061484813690186 18.883562445640564 3.0443912148475647 17.54140293598175 2.525084435939789 C 16.764663815498352 2.234044373035431 15.94508981704712 2.077111005783081 15.11694884300232 2.0606250762939453 C 14.051788210868835 2.011167287826538 13.711012959480286 1.9997539520263672 11.000041127204895 1.9997539520263672 Z M 11.000041127204895 6.866273522377014 C 8.167227864265442 6.866273522377014 5.872230291366577 9.16606068611145 5.872230291366577 12.002591669559479 C 5.872230291366577 14.839756727218628 8.167227864265442 17.139226853847504 11.000041127204895 17.139226853847504 C 13.832854390144348 17.139226853847504 16.127851963043213 14.839756727218628 16.127851963043213 12.002591669559479 C 16.127851963043213 12.002591669559479 16.127851963043213 12.002591669559479 16.127851963043213 12.002591669559479 C 16.127851963043213 9.16606068611145 13.832854390144348 6.866273522377014 11.000041127204895 6.866273522377014 Z M 11.000041127204895 15.336870908737183 C 9.161948919296265 15.336870908737183 7.671295166015625 13.844260215759277 7.671295166015625 12.002591669559479 C 7.671295166015625 10.16124016046524 9.161948919296265 8.668629467487335 11.000041127204895 8.668629467487335 C 12.838133335113525 8.668629467487335 14.328787088394165 10.16124016046524 14.328787088394165 12.002591669559479 C 14.328787088394165 13.843626141548157 12.840037107467651 15.336870908737183 11.000993013381958 15.336870908737183 C 11.000041127204895 15.336870908737183 11.000041127204895 15.336870908737183 11.000041127204895 15.336870908737183 Z M 16.33060371875763 5.463067293167114 C 16.99311649799347 5.463067293167114 17.529980301856995 6.000445187091827 17.529980301856995 6.66336977481842 C 17.529980301856995 7.326294362545013 16.99311649799347 7.863989293575287 16.33060371875763 7.863989293575287 C 15.66809093952179 7.863989293575287 15.132179021835327 7.326294362545013 15.132179021835327 6.66336977481842 C 15.132179021835327 6.000445187091827 15.66809093952179 5.463067293167114 16.33060371875763 5.463067293167114 Z"/></g></svg>