<svg xmlns="http://www.w3.org/2000/svg" width="42" height="62" viewBox="0 0 42 62">
  <g id="Socialmedia_icon" transform="translate(-9763 -620)">
    <g id="Vector_Smart_Object" data-name="Vector Smart Object" transform="translate(9752 619)">
      <g id="Groupe_3" data-name="Groupe 3">
        <path id="Tracé_6" data-name="Tracé 6" d="M41.151,23.853a6.3,6.3,0,0,0-8.91-.018c-.082.082-.163.167-.241.254a6.324,6.324,0,1,0-9.375,8.49c.073.08.147.159.224.235L32,42l9.151-9.187A6.352,6.352,0,0,0,41.151,23.853Z" fill="none" stroke="#4c4c4c" stroke-linecap="square" stroke-miterlimit="10" stroke-width="2"/>
        <line id="Ligne_1" data-name="Ligne 1" x2="40" transform="translate(12 54)" fill="none" stroke="#4c4c4c" stroke-miterlimit="10" stroke-width="2"/>
        <line id="Ligne_2" data-name="Ligne 2" x2="40" transform="translate(12 10)" fill="none" stroke="#4c4c4c" stroke-miterlimit="10" stroke-width="2"/>
        <path id="Tracé_7" data-name="Tracé 7" d="M52,58a4.013,4.013,0,0,1-4,4H16a4.013,4.013,0,0,1-4-4V6a4.013,4.013,0,0,1,4-4H48a4.013,4.013,0,0,1,4,4Z" fill="none" stroke="#4c4c4c" stroke-linecap="square" stroke-miterlimit="10" stroke-width="2"/>
      </g>
    </g>
  </g>
</svg>
