<?xml version="1.0" encoding="UTF-8" standalone="no"?>
<svg
   width="201"
   height="54"
   version="1.1"
   id="svg6"
   sodipodi:docname="MobileTitleWhite.svg"
   inkscape:version="1.1 (1:1.1+202106032008+af4d65493e)"
   xmlns:inkscape="http://www.inkscape.org/namespaces/inkscape"
   xmlns:sodipodi="http://sodipodi.sourceforge.net/DTD/sodipodi-0.dtd"
   xmlns="http://www.w3.org/2000/svg"
   xmlns:svg="http://www.w3.org/2000/svg">
  <defs
     id="defs10" />
  <sodipodi:namedview
     id="namedview8"
     pagecolor="#ffffff"
     bordercolor="#999999"
     borderopacity="1"
     inkscape:pageshadow="0"
     inkscape:pageopacity="0"
     inkscape:pagecheckerboard="0"
     showgrid="false"
     inkscape:zoom="5.7363184"
     inkscape:cx="100.5"
     inkscape:cy="26.933651"
     inkscape:window-width="1366"
     inkscape:window-height="708"
     inkscape:window-x="0"
     inkscape:window-y="28"
     inkscape:window-maximized="1"
     inkscape:current-layer="svg6" />
  <svg
     width="201"
     height="54"
     version="1.1"
     id="svg4"
     style="fill:#ffffff">
    <path
       paint-order="stroke fill markers"
       fill-rule="evenodd"
       d="M2.678 48.814c0-.437.234-.746.7-.746 1.372.025.959 4.425 6.502 4.425 2.823 0 4.741-1.544 4.741-3.756 0-6.921-11.373-1.57-11.373-9.288 0-2.856 2.305-4.914 6.218-4.914 4.404 0 6.476 2.495 6.476 4.04 0 .462-.233.745-.725.745-1.477 0-.622-4.013-5.804-4.013-2.928 0-4.585 1.647-4.585 3.884 0 6.407 11.373 1.339 11.373 9.289 0 2.907-2.797 4.811-6.373 4.811-5.078 0-7.15-3.164-7.15-4.477zm16.994.875V41.48h-1.995a.298.298 0 0 1-.312-.308v-.18c0-.18.104-.309.312-.309h1.089c1.139 0 1.502-.977 1.58-2.393.025-.308.128-.489.361-.489h.156c.26 0 .31.18.31.489l.053 2.393h3.861c.18 0 .31.129.31.308v.18c0 .181-.13.31-.31.31h-3.86v8.207c0 1.62.699 2.418 1.761 2.418 1.19 0 1.917-.694 1.969-1.698.104-.386.725-.386.725.051 0 1.467-1.14 2.805-3.005 2.805-1.814 0-3.005-1.132-3.005-3.576zm20.103 3.036c0 .386-.364.463-1.244.463-.96 0-1.762-.463-1.71-1.904l-.078-.412c-.752 1.518-2.228 2.419-4.092 2.419-2.928 0-4.793-2.264-4.793-6.15v-4.63c0-.875-.933-.875-.933-1.287V41.2c0-.18.13-.284.31-.335l1.607-.36c.336-.078.544-.052.544.257l-.026 6.484c0 3.293 1.295 5.248 3.55 5.248 2.123 0 3.807-1.698 3.807-4.348V42.51c0-.874-.984-.848-.984-1.286V41.2c0-.18.078-.284.285-.335l1.684-.36c.337-.078.52-.052.52.257v10.292c0 1.8 1.553 1.054 1.553 1.672zm14.17.026v.077c0 .128-.104.205-.311.205H51.95a.326.326 0 0 1-.338-.334l-.05-1.75c-.882 1.544-2.591 2.342-4.25 2.342-3.186 0-5.933-2.675-5.933-6.483 0-3.706 2.513-6.382 6.037-6.382 1.736 0 3.264.85 4.12 2.084v-6.432c0-1.055-.986-.926-.986-1.337v-.052c0-.128.105-.258.338-.335l1.45-.54c.467-.18.674-.052.674.31v17.443c0 .823.932.823.932 1.184zm-2.409-4.297v-3.602c0-1.673-1.815-3.73-4.25-3.73-2.539 0-4.404 2.212-4.43 5.222-.025 3.55 1.995 6.226 4.87 6.252 1.659 0 3.81-1.415 3.81-4.142zm4.61 4.297v-.104c0-.385.932-.308.932-1.106v-8.618c0-.901-.906-1.081-.906-1.365v-.077c0-.128.13-.18.31-.282l1.398-.695c.468-.206.701-.026.701.309V51.54c0 .798.959.72.959 1.106v.104c0 .153-.207.282-.493.282h-2.409c-.284 0-.492-.129-.492-.282zm.208-16.081c0-.797.543-1.312 1.347-1.312.75 0 1.268.515 1.268 1.312 0 .772-.517 1.261-1.268 1.261-.804 0-1.347-.489-1.347-1.261zm5.231 9.957c0-3.5 2.617-6.175 6.191-6.175 3.628 0 6.323 2.856 6.323 6.535 0 3.577-2.462 6.278-6.012 6.278-3.808 0-6.502-3.062-6.502-6.638zm10.984.849c0-3.628-2.098-6.355-5.026-6.355-2.538 0-4.43 2.11-4.43 5.069 0 3.396 2.125 6.406 5.233 6.406 2.384 0 4.223-2.161 4.223-5.12zM6.615 26.818v-.103c0-.72 1.114-1.03 1.114-2.213V10.969H6.356c-1.735 0-2.046 3.113-3.264 3.113h-.44c-.44 0-.7-.283-.648-.746l.518-3.5c.053-.565.312-.797.882-.797H16.72c.57 0 .802.232.88.798l.545 3.524c.077.438-.209.721-.648.721h-.441c-1.218 0-1.554-3.113-3.316-3.113h-1.347v13.533c0 1.184 1.114 1.492 1.114 2.213v.103c0 .308-.234.489-.622.489H7.212c-.363 0-.597-.18-.597-.49zm27.15-.103v.103c0 .308-.234.489-.622.489h-5.156c-.388 0-.621-.18-.621-.49v-.102c0-.747.984-1.055.933-2.239l-.26-4.785c-.13-2.342-.622-3.293-1.813-3.293-1.14 0-1.684 1.003-1.684 2.495v5.609c0 1.184 1.166 1.466 1.166 2.213v.103c0 .308-.26.489-.622.489h-5.622c-.362 0-.596-.18-.596-.49v-.102c0-.747 1.14-1.03 1.14-2.213V12.564c0-1.21-1.27-1.338-1.27-2.058v-.078c0-.308.234-.565.597-.72l4.093-1.8c.595-.258.984-.052.984.54v7.461c.751-.772 1.84-1.21 3.16-1.21 2.254 0 4.638 1.26 4.924 5.146l.336 4.631c.104 1.184.932 1.492.932 2.239zM46.51 23.6c-.078 1.415-1.554 3.962-5.285 3.962-3.834 0-6.554-2.624-6.554-6.509 0-3.833 2.952-6.328 6.425-6.354 3.082-.026 5.155 1.466 5.155 3.73 0 1.801-1.71 3.294-4.145 3.679-.906.155-1.814.206-2.59.18.673 1.287 1.813 2.084 3.264 2.084 1.295 0 2.304-.514 2.772-1.132.362-.36.984-.205.958.36zm-7.72-4.656c0 .695.077 1.363.233 1.98.493.026.958 0 1.295-.051 1.14-.205 1.762-1.003 1.762-2.778-.026-1.132-.674-2.033-1.529-2.033-1.062 0-1.76 1.184-1.76 2.882zm31.553-.49v.104c0 .72-1.27 1.029-1.27 2.238v6.072c0 .36-.258.694-.647.694-.233 0-.517-.05-.75-.282l-1.064-1.21c-1.19.927-3.134 1.492-4.638 1.492-5.698 0-9.196-4.4-9.196-9.417 0-5.84 4.456-9.339 8.758-9.339 4.403 0 7.616 2.136 7.616 4.76 0 1.26-.805 2.084-2.072 2.084-3.317 0-3.758-5.017-6.71-5.017-1.789 0-3.006 1.904-3.006 4.477 0 5.043 2.643 9.082 5.881 9.082.647 0 1.114-.076 1.45-.283v-3.138c0-1.184-1.424-1.493-1.424-2.239v-.103c0-.284.286-.489.673-.489l5.777.026c.364 0 .622.18.622.489zm14.636 8.157c0 .669-1.502.848-2.927.848-1.555 0-2.306-.308-2.513-1.234-.545.746-1.58 1.337-3.291 1.337-2.772 0-4.896-1.26-4.896-3.91 0-2.599 2.202-3.936 4.664-3.936 1.088 0 1.968.257 2.616.642v-.076c-.31-3.036-.493-4.35-1.84-4.35-1.787 0-1.062 3.449-3.367 3.449-1.088 0-1.815-.67-1.815-1.673 0-2.109 2.54-3.01 5.182-3.01 3.472 0 5.881 2.007 6.296 5.198l.57 4.605c.233 1.827 1.32 1.389 1.32 2.11zm-5.958-2.213l-.104-1.183c-.18-1.544-.855-2.136-1.607-2.136-.776 0-1.32.695-1.32 1.75 0 1.827.622 3.422 1.684 3.422.855 0 1.347-.979 1.347-1.853zm17.72-7.152c0 1.286-.494 2.418-1.995 2.418-2.358 0-1.296-2.418-2.591-2.418-.83 0-.96 1.338-.96 2.47v4.785c0 1.184 1.374 1.492 1.374 2.213v.103c0 .308-.26.489-.62.489h-5.572c-.363 0-.622-.18-.622-.49v-.102c0-.72 1.037-1.03 1.037-2.213v-5.12c0-1.21-1.243-1.312-1.243-2.058v-.077c0-.31.206-.54.596-.747l3.652-1.697c.673-.31.933.05.933.565v1.879c.57-1.647 1.788-2.547 3.574-2.547 1.53 0 2.436 1.106 2.436 2.547zm15.645 9.493v.103c0 .309-.259.49-.621.49h-5.182c-.388 0-.62-.181-.62-.49v-.103c0-.746 1.009-1.054.932-2.238l-.26-4.605c-.13-2.548-.622-3.5-1.787-3.5-1.14 0-1.684 1.004-1.684 2.496v5.609c0 1.184 1.14 1.492 1.14 2.238v.103c0 .309-.233.49-.622.49h-5.596c-.388 0-.622-.181-.622-.49v-.103c0-.746 1.14-1.054 1.14-2.238v-5.069c0-1.235-1.373-1.389-1.373-2.135v-.077c0-.309.26-.463.622-.644l3.628-1.774c.647-.335.984.102.984.617v1.209c.699-1.235 1.995-1.93 3.704-1.93 2.255 0 4.637 1.26 4.949 5.352l.336 4.45c.078 1.185.932 1.493.932 2.24zm1.036.078v-.103c0-.747 1.037-1.055 1.037-2.239v-4.888c0-1.184-1.037-1.544-1.037-2.161v-.103c0-.284.233-.412.596-.592l3.912-1.904c.725-.36 1.165.051 1.165.54v9.108c0 1.184 1.167 1.492 1.167 2.239v.103c0 .308-.26.489-.648.489h-5.57c-.389 0-.622-.18-.622-.49zm.415-15.952c0-1.467 1.192-2.573 2.978-2.573 1.763 0 2.953 1.106 2.953 2.573 0 1.44-1.19 2.573-2.953 2.573-1.786 0-2.978-1.132-2.978-2.573zm7.487 13.662c0-1.158.803-1.647 1.838-1.647 2.59 0 1.711 3.525 3.862 3.525.775 0 1.398-.386 1.398-1.415 0-3.37-6.865-1.39-6.865-6.38 0-2.29 2.228-3.911 5.467-3.911 3.29 0 5.44 1.414 5.44 3.087 0 .9-.778 1.569-1.737 1.569-2.513 0-1.684-3.473-3.471-3.473-.804 0-1.218.72-1.218 1.466 0 3.525 6.633 1.673 6.633 6.407 0 2.135-2.047 3.781-5.647 3.781-3.265 0-5.7-1.208-5.7-3.01zm27.33 2.187v.103c0 .308-.233.489-.621.489h-5.157c-.387 0-.62-.18-.62-.49v-.102c0-.747.984-1.055.931-2.239l-.257-4.785c-.13-2.342-.623-3.293-1.815-3.293-1.14 0-1.683 1.003-1.683 2.495v5.609c0 1.184 1.164 1.466 1.164 2.213v.103c0 .308-.257.489-.62.489h-5.622c-.364 0-.597-.18-.597-.49v-.102c0-.747 1.14-1.03 1.14-2.213V12.564c0-1.21-1.268-1.338-1.268-2.058v-.078c0-.308.233-.565.596-.72l4.093-1.8c.596-.258.984-.052.984.54v7.461c.75-.772 1.839-1.21 3.16-1.21 2.255 0 4.638 1.26 4.923 5.146l.337 4.631c.103 1.184.932 1.492.932 2.239zM187.062 5.32c0 3.197-2.61 5.789-5.829 5.789h-1.943V9.18c0-3.196 2.61-5.788 5.828-5.788h1.944v1.93zM174.935 4.26c0 .85.696 1.542 1.552 1.542a1.55 1.55 0 0 0 1.553-1.542c0-.85-.697-1.542-1.553-1.542s-1.552.692-1.552 1.542zm13.51 6.485c0 .593.486 1.077 1.085 1.077.598 0 1.084-.484 1.084-1.077 0-.594-.486-1.077-1.084-1.077-.599 0-1.084.483-1.084 1.077zm4.257-3.18c0 2.47 2.023 4.48 4.512 4.48 2.488 0 4.51-2.01 4.51-4.48 0-2.47-2.022-4.48-4.51-4.48-2.489 0-4.512 2.01-4.512 4.48zm4.512-2.489a2.501 2.501 0 0 1 2.506 2.49 2.501 2.501 0 0 1-2.506 2.488 2.501 2.501 0 0 1-2.508-2.489 2.501 2.501 0 0 1 2.508-2.489zm0 3.983a1.5 1.5 0 0 0 1.503-1.494 1.5 1.5 0 0 0-1.503-1.493 1.5 1.5 0 0 0-1.504 1.493 1.5 1.5 0 0 0 1.504 1.494zm-49.64-4.25a6.228 6.228 0 0 0-.026.5c0 3.683 2.975 6.67 6.644 6.67 3.67 0 6.643-2.987 6.643-6.67 0-.169-.013-.335-.024-.5h-13.237zM173.53 9.85c-.003 2.062-1.686 3.734-3.763 3.737h-1.828c-2.076-.003-3.76-1.675-3.762-3.737v-.267c0-2.807 4.676-8.353 4.676-8.353s4.677 5.69 4.677 8.353v.267z"
       id="path2"
       style="fill:#ffffff" />
  </svg>
</svg>
