<svg version="1.1" xmlns="http://www.w3.org/2000/svg" xmlns:xlink="http://www.w3.org/1999/xlink" width="32" height="23"><defs/><g><path fill="rgb(0,0,0)" stroke="none" paint-order="stroke fill markers" fill-rule="evenodd" d=" M 2.500047206878662 0.9999375343322754 C 2.500047206878662 0.9999375343322754 29.500298619270325 0.9999375343322754 29.500298619270325 0.9999375343322754 C 30.328439593315125 0.9999375343322754 31.000471234321594 1.6714221239089966 31.000471234321594 2.500157117843628 C 31.000471234321594 3.328575074672699 30.328439593315125 4.00005966424942 29.500298619270325 4.00005966424942 C 29.500298619270325 4.00005966424942 2.500047206878662 4.00005966424942 2.500047206878662 4.00005966424942 C 1.6719062328338623 4.00005966424942 0.9998745918273926 3.328575074672699 0.9998745918273926 2.500157117843628 C 0.9998745918273926 1.6714221239089966 1.6719062328338623 0.9999375343322754 2.500047206878662 0.9999375343322754 Z M 2.500047206878662 9.99998688697815 C 2.500047206878662 9.99998688697815 29.500298619270325 9.99998688697815 29.500298619270325 9.99998688697815 C 30.328439593315125 9.99998688697815 31.000471234321594 10.67147147655487 31.000471234321594 11.499889433383942 C 31.000471234321594 12.328307390213013 30.328439593315125 13.000109016895294 29.500298619270325 13.000109016895294 C 29.500298619270325 13.000109016895294 2.500047206878662 13.000109016895294 2.500047206878662 13.000109016895294 C 1.6719062328338623 13.000109016895294 0.9998745918273926 12.328307390213013 0.9998745918273926 11.499889433383942 C 0.9998745918273926 10.67147147655487 1.6719062328338623 9.99998688697815 2.500047206878662 9.99998688697815 Z M 2.500047206878662 19.000036239624023 C 2.500047206878662 19.000036239624023 29.500298619270325 19.000036239624023 29.500298619270325 19.000036239624023 C 30.328439593315125 19.000036239624023 31.000471234321594 19.671520829200745 31.000471234321594 20.499938786029816 C 31.000471234321594 21.328356742858887 30.328439593315125 22.000158369541168 29.500298619270325 22.000158369541168 C 29.500298619270325 22.000158369541168 2.500047206878662 22.000158369541168 2.500047206878662 22.000158369541168 C 1.6719062328338623 22.000158369541168 0.9998745918273926 21.328356742858887 0.9998745918273926 20.499938786029816 C 0.9998745918273926 19.671520829200745 1.6719062328338623 19.000036239624023 2.500047206878662 19.000036239624023 Z"/></g></svg>