<svg version="1.1" xmlns="http://www.w3.org/2000/svg" xmlns:xlink="http://www.w3.org/1999/xlink" width="353" height="37"><defs/><g><path fill="rgb(255,255,255)" stroke="none" paint-order="stroke fill markers" fill-rule="evenodd" d=" M 195.5203709602356 29.19710338115692 C 195.5203709602356 28.64926326274872 195.81545567512512 28.261526882648468 196.4046732187271 28.261526882648468 C 198.1437692642212 28.29386466741562 197.61927998065948 33.807774007320404 204.63658487796783 33.807774007320404 C 208.20901370048523 33.807774007320404 210.63632345199585 31.872896552085876 210.63632345199585 29.10009002685547 C 210.63632345199585 20.426905930042267 196.24190068244934 27.13319182395935 196.24190068244934 17.460072696208954 C 196.24190068244934 13.881040811538696 199.1594318151474 11.301626920700073 204.110191822052 11.301626920700073 C 209.68443727493286 11.301626920700073 212.30878746509552 14.4288809299469 212.30878746509552 16.364392459392548 C 212.30878746509552 16.944887399673462 212.01275086402893 17.29870080947876 211.39021730422974 17.29870080947876 C 209.52071285247803 17.29870080947876 210.60300743579865 12.269541203975677 204.04546356201172 12.269541203975677 C 200.3397706747055 12.269541203975677 198.24181354045868 14.333135724067688 198.24181354045868 17.137328922748566 C 198.24181354045868 25.166610658168793 212.63528442382812 18.814455211162567 212.63528442382812 28.7779803276062 C 212.63528442382812 32.42073667049408 209.0942678451538 34.80739200115204 204.56995284557343 34.80739200115204 C 198.1437692642212 34.80739200115204 195.5203709602356 30.841891884803772 195.5203709602356 29.19710338115692 Z M 217.02823913097382 30.292783617973328 C 217.02823913097382 30.292783617973328 217.02823913097382 20.007148802280426 217.02823913097382 20.007148802280426 C 217.02823913097382 20.007148802280426 214.50383698940277 20.007148802280426 214.50383698940277 20.007148802280426 C 214.2744324207306 20.007148802280426 214.11070799827576 19.846728026866913 214.11070799827576 19.620680570602417 C 214.11070799827576 19.620680570602417 214.11070799827576 19.39431607723236 214.11070799827576 19.39431607723236 C 214.11070799827576 19.169853806495667 214.2411164045334 19.007847845554352 214.50383698940277 19.007847845554352 C 214.50383698940277 19.007847845554352 215.88026440143585 19.007847845554352 215.88026440143585 19.007847845554352 C 217.32332384586334 19.007847845554352 217.78308486938477 17.783450543880463 217.88112914562225 16.00931090116501 C 217.9134932756424 15.622842669487 218.0448535680771 15.396478176116943 218.3399382829666 15.396478176116943 C 218.3399382829666 15.396478176116943 218.53697872161865 15.396478176116943 218.53697872161865 15.396478176116943 C 218.86442756652832 15.396478176116943 218.93105959892273 15.622842669487 218.93105959892273 16.00931090116501 C 218.93105959892273 16.00931090116501 218.99483597278595 19.007847845554352 218.99483597278595 19.007847845554352 C 218.99483597278595 19.007847845554352 223.88181960582733 19.007847845554352 223.88181960582733 19.007847845554352 C 224.11027228832245 19.007847845554352 224.27399671077728 19.169853806495667 224.27399671077728 19.39431607723236 C 224.27399671077728 19.39431607723236 224.27399671077728 19.620680570602417 224.27399671077728 19.620680570602417 C 224.27399671077728 19.846728026866913 224.11027228832245 20.007148802280426 223.88181960582733 20.007148802280426 C 223.88181960582733 20.007148802280426 218.99483597278595 20.007148802280426 218.99483597278595 20.007148802280426 C 218.99483597278595 20.007148802280426 218.99483597278595 30.292783617973328 218.99483597278595 30.292783617973328 C 218.99483597278595 32.32435739040375 219.8810420036316 33.32397538423538 221.22510528564453 33.32397538423538 C 222.73384487628937 33.32397538423538 223.6514631509781 32.45307445526123 223.71714329719543 31.19570529460907 C 223.84850358963013 30.712223708629608 224.63571345806122 30.712223708629608 224.63571345806122 31.260697901248932 C 224.63571345806122 33.097927927970886 223.19265401363373 34.77537125349045 220.83102440834045 34.77537125349045 C 218.53697872161865 34.77537125349045 217.02823913097382 33.35631316900253 217.02823913097382 30.292783617973328 Z M 242.47025287151337 34.09786295890808 C 242.47025287151337 34.58134454488754 242.01239562034607 34.678357899188995 240.89678502082825 34.678357899188995 C 239.68408203125 34.678357899188995 238.66651570796967 34.09786295890808 238.73409962654114 32.291702568531036 C 238.73409962654114 32.291702568531036 238.6351034641266 31.776200234889984 238.6351034641266 31.776200234889984 C 237.68416917324066 33.6784228682518 235.81466472148895 34.80739200115204 233.45398700237274 34.80739200115204 C 229.7492460012436 34.80739200115204 227.38856828212738 31.96990990638733 227.38856828212738 27.1008540391922 C 227.38856828212738 27.1008540391922 227.38856828212738 21.296855747699738 227.38856828212738 21.296855747699738 C 227.38856828212738 20.20085847377777 226.20822942256927 20.20085847377777 226.20822942256927 19.68535614013672 C 226.20822942256927 19.68535614013672 226.20822942256927 19.652701318264008 226.20822942256927 19.652701318264008 C 226.20822942256927 19.426970899105072 226.3719538450241 19.29793679714203 226.60231029987335 19.233261227607727 C 226.60231029987335 19.233261227607727 228.63458728790283 18.782117426395416 228.63458728790283 18.782117426395416 C 229.06008040905 18.685104072093964 229.32280099391937 18.717758893966675 229.32280099391937 19.104861199855804 C 229.32280099391937 19.104861199855804 229.28948497772217 27.230205178260803 229.28948497772217 27.230205178260803 C 229.28948497772217 31.357394218444824 230.9295848608017 33.807774007320404 233.78238773345947 33.807774007320404 C 236.47051429748535 33.807774007320404 238.60178744792938 31.67918688058853 238.60178744792938 28.35822319984436 C 238.60178744792938 28.35822319984436 238.60178744792938 21.296855747699738 238.60178744792938 21.296855747699738 C 238.60178744792938 20.20085847377777 237.35576844215393 20.233196258544922 237.35576844215393 19.68535614013672 C 237.35576844215393 19.68535614013672 237.35576844215393 19.652701318264008 237.35576844215393 19.652701318264008 C 237.35576844215393 19.426970899105072 237.45476460456848 19.29793679714203 237.71558141708374 19.233261227607727 C 237.71558141708374 19.233261227607727 239.84780645370483 18.782117426395416 239.84780645370483 18.782117426395416 C 240.27425146102905 18.685104072093964 240.50270414352417 18.717758893966675 240.50270414352417 19.104861199855804 C 240.50270414352417 19.104861199855804 240.50270414352417 32.00224769115448 240.50270414352417 32.00224769115448 C 240.50270414352417 34.259551882743835 242.47025287151337 33.32397538423538 242.47025287151337 34.09786295890808 Z M 260.40474033355713 34.13051778078079 C 260.40474033355713 34.13051778078079 260.40474033355713 34.227214097976685 260.40474033355713 34.227214097976685 C 260.40474033355713 34.3876348733902 260.2743319272995 34.48433119058609 260.0116113424301 34.48433119058609 C 260.0116113424301 34.48433119058609 257.8803381919861 34.48433119058609 257.8803381919861 34.48433119058609 C 257.61856949329376 34.48433119058609 257.45389318466187 34.291889667510986 257.45389318466187 34.06552517414093 C 257.45389318466187 34.06552517414093 257.3882130384445 31.872896552085876 257.3882130384445 31.872896552085876 C 256.27355432510376 33.807774007320404 254.10896515846252 34.80739200115204 252.0110080242157 34.80739200115204 C 247.97786629199982 34.80739200115204 244.50157797336578 31.454090535640717 244.50157797336578 26.6823650598526 C 244.50157797336578 22.038405537605286 247.68373346328735 18.685104072093964 252.14332020282745 18.685104072093964 C 254.33932161331177 18.685104072093964 256.27355432510376 19.74971467256546 257.3558489084244 21.296855747699738 C 257.3558489084244 21.296855747699738 257.3558489084244 13.23618733882904 257.3558489084244 13.23618733882904 C 257.3558489084244 11.914459645748138 256.1098299026489 12.075831532478333 256.1098299026489 11.56032919883728 C 256.1098299026489 11.56032919883728 256.1098299026489 11.495336592197418 256.1098299026489 11.495336592197418 C 256.1098299026489 11.333964705467224 256.2411901950836 11.17259281873703 256.53627490997314 11.075579464435577 C 256.53627490997314 11.075579464435577 258.3734152317047 10.398705244064331 258.3734152317047 10.398705244064331 C 258.9626327753067 10.173925936222076 259.224401473999 10.33402967453003 259.224401473999 10.786124587059021 C 259.224401473999 10.786124587059021 259.224401473999 32.647101163864136 259.224401473999 32.647101163864136 C 259.224401473999 33.6784228682518 260.40474033355713 33.6784228682518 260.40474033355713 34.13051778078079 Z M 257.3558489084244 28.74595957994461 C 257.3558489084244 28.74595957994461 257.3558489084244 24.23103415966034 257.3558489084244 24.23103415966034 C 257.3558489084244 22.13541889190674 255.0608513355255 19.556322038173676 251.97864389419556 19.556322038173676 C 248.76412427425385 19.556322038173676 246.40535032749176 22.329128563404083 246.3710824251175 26.100919008255005 C 246.33871829509735 30.550851821899414 248.8964364528656 33.904153287410736 252.5354973077774 33.93649107217789 C 254.63345444202423 33.93649107217789 257.3558489084244 32.163619577884674 257.3558489084244 28.74595957994461 Z M 263.1909111738205 34.13051778078079 C 263.1909111738205 34.13051778078079 263.1909111738205 34.00116664171219 263.1909111738205 34.00116664171219 C 263.1909111738205 33.51768505573273 264.37029814720154 33.61469841003418 264.37029814720154 32.614763379096985 C 264.37029814720154 32.614763379096985 264.37029814720154 21.81330919265747 264.37029814720154 21.81330919265747 C 264.37029814720154 20.684340059757233 263.22327530384064 20.459243714809418 263.22327530384064 20.10416215658188 C 263.22327530384064 20.10416215658188 263.22327530384064 20.007148802280426 263.22327530384064 20.007148802280426 C 263.22327530384064 19.846728026866913 263.38699972629547 19.78205245733261 263.61640429496765 19.652701318264008 C 263.61640429496765 19.652701318264008 265.3878644704819 18.782117426395416 265.3878644704819 18.782117426395416 C 265.9780339002609 18.52404922246933 266.27311861515045 18.749779641628265 266.27311861515045 19.169853806495667 C 266.27311861515045 19.169853806495667 266.27311861515045 32.614763379096985 266.27311861515045 32.614763379096985 C 266.27311861515045 33.61469841003418 267.48486971855164 33.51768505573273 267.48486971855164 34.00116664171219 C 267.48486971855164 34.00116664171219 267.48486971855164 34.13051778078079 267.48486971855164 34.13051778078079 C 267.48486971855164 34.322959303855896 267.2240529060364 34.48433119058609 266.86233615875244 34.48433119058609 C 266.86233615875244 34.48433119058609 263.81439661979675 34.48433119058609 263.81439661979675 34.48433119058609 C 263.4526798725128 34.48433119058609 263.1909111738205 34.322959303855896 263.1909111738205 34.13051778078079 Z M 263.4526798725128 13.978054165840149 C 263.4526798725128 12.978753209114075 264.1418454647064 12.333265662193298 265.1584599018097 12.333265662193298 C 266.1093941926956 12.333265662193298 266.76429188251495 12.978753209114075 266.76429188251495 13.978054165840149 C 266.76429188251495 14.945651412010193 266.1093941926956 15.558167099952698 265.1584599018097 15.558167099952698 C 264.1418454647064 15.558167099952698 263.4526798725128 14.945651412010193 263.4526798725128 13.978054165840149 Z M 270.0759038925171 26.456000566482544 C 270.0759038925171 22.070743322372437 273.3875159025192 18.717758893966675 277.91087901592255 18.717758893966675 C 282.50182604789734 18.717758893966675 285.912434220314 22.296790778636932 285.912434220314 26.907461404800415 C 285.912434220314 31.389732003211975 282.79691076278687 34.77537125349045 278.30400800704956 34.77537125349045 C 273.4855601787567 34.77537125349045 270.0759038925171 30.937320053577423 270.0759038925171 26.456000566482544 Z M 283.97724962234497 27.51966005563736 C 283.97724962234497 22.97398203611374 281.32053530216217 19.556322038173676 277.6167461872101 19.556322038173676 C 274.40317845344543 19.556322038173676 272.009184718132 22.19977742433548 272.009184718132 25.90816044807434 C 272.009184718132 30.164383590221405 274.69826316833496 33.93649107217789 278.6324087381363 33.93649107217789 C 281.6489360332489 33.93649107217789 283.97724962234497 31.22836011648178 283.97724962234497 27.51966005563736 Z M 7.841732859611511 34.06552517414093 C 7.841732859611511 34.06552517414093 7.841732859611511 33.93649107217789 7.841732859611511 33.93649107217789 C 7.841732859611511 33.033252358436584 9.251476287841797 32.647101163864136 9.251476287841797 31.16368454694748 C 9.251476287841797 31.16368454694748 9.251476287841797 14.203784584999084 9.251476287841797 14.203784584999084 C 9.251476287841797 14.203784584999084 7.51333212852478 14.203784584999084 7.51333212852478 14.203784584999084 C 5.316378831863403 14.203784584999084 4.923249840736389 18.10492616891861 3.382146120071411 18.10492616891861 C 3.382146120071411 18.10492616891861 2.825292706489563 18.10492616891861 2.825292706489563 18.10492616891861 C 2.267487406730652 18.10492616891861 1.9400385618209839 17.74952757358551 2.004766821861267 17.169666707515717 C 2.004766821861267 17.169666707515717 2.661568284034729 12.78504353761673 2.661568284034729 12.78504353761673 C 2.726296544075012 12.075514495372772 3.054697275161743 11.784791469573975 3.7752751111984253 11.784791469573975 C 3.7752751111984253 11.784791469573975 20.628419876098633 11.784791469573975 20.628419876098633 11.784791469573975 C 21.349949598312378 11.784791469573975 21.645986199378967 12.075514495372772 21.744030475616455 12.78504353761673 C 21.744030475616455 12.78504353761673 22.432244181632996 17.201687455177307 22.432244181632996 17.201687455177307 C 22.531240344047546 17.74952757358551 22.170475482940674 18.10492616891861 21.612670183181763 18.10492616891861 C 21.612670183181763 18.10492616891861 21.056768655776978 18.10492616891861 21.056768655776978 18.10492616891861 C 19.513761162757874 18.10492616891861 19.088268041610718 14.203784584999084 16.857998728752136 14.203784584999084 C 16.857998728752136 14.203784584999084 15.154122471809387 14.203784584999084 15.154122471809387 14.203784584999084 C 15.154122471809387 14.203784584999084 15.154122471809387 31.16368454694748 15.154122471809387 31.16368454694748 C 15.154122471809387 32.647101163864136 16.56291401386261 33.033252358436584 16.56291401386261 33.93649107217789 C 16.56291401386261 33.93649107217789 16.56291401386261 34.06552517414093 16.56291401386261 34.06552517414093 C 16.56291401386261 34.45199340581894 16.268781185150146 34.678040862083435 15.776656031608582 34.678040862083435 C 15.776656031608582 34.678040862083435 8.595626711845398 34.678040862083435 8.595626711845398 34.678040862083435 C 8.136817574501038 34.678040862083435 7.841732859611511 34.45199340581894 7.841732859611511 34.06552517414093 Z M 42.20292007923126 33.93649107217789 C 42.20292007923126 33.93649107217789 42.20292007923126 34.06552517414093 42.20292007923126 34.06552517414093 C 42.20292007923126 34.45199340581894 41.90688347816467 34.678040862083435 41.41571021080017 34.678040862083435 C 41.41571021080017 34.678040862083435 34.890530467033386 34.678040862083435 34.890530467033386 34.678040862083435 C 34.39840531349182 34.678040862083435 34.103320598602295 34.45199340581894 34.103320598602295 34.06552517414093 C 34.103320598602295 34.06552517414093 34.103320598602295 33.93649107217789 34.103320598602295 33.93649107217789 C 34.103320598602295 33.000914573669434 35.34933960437775 32.614446341991425 35.28270757198334 31.131029725074768 C 35.28270757198334 31.131029725074768 34.95621061325073 25.13395583629608 34.95621061325073 25.13395583629608 C 34.7924861907959 22.19977742433548 34.16900074481964 21.00708383321762 32.660261154174805 21.00708383321762 C 31.218153595924377 21.00708383321762 30.528988003730774 22.26413595676422 30.528988003730774 24.134020805358887 C 30.528988003730774 24.134020805358887 30.528988003730774 31.16368454694748 30.528988003730774 31.16368454694748 C 30.528988003730774 32.647101163864136 32.00536346435547 33.000914573669434 32.00536346435547 33.93649107217789 C 32.00536346435547 33.93649107217789 32.00536346435547 34.06552517414093 32.00536346435547 34.06552517414093 C 32.00536346435547 34.45199340581894 31.676962733268738 34.678040862083435 31.218153595924377 34.678040862083435 C 31.218153595924377 34.678040862083435 24.10280442237854 34.678040862083435 24.10280442237854 34.678040862083435 C 23.64399528503418 34.678040862083435 23.348910570144653 34.45199340581894 23.348910570144653 34.06552517414093 C 23.348910570144653 34.06552517414093 23.348910570144653 33.93649107217789 23.348910570144653 33.93649107217789 C 23.348910570144653 33.000914573669434 24.791970014572144 32.647101163864136 24.791970014572144 31.16368454694748 C 24.791970014572144 31.16368454694748 24.791970014572144 16.203020572662354 24.791970014572144 16.203020572662354 C 24.791970014572144 14.686949133872986 23.18518614768982 14.525577247142792 23.18518614768982 13.62265557050705 C 23.18518614768982 13.62265557050705 23.18518614768982 13.525642216205597 23.18518614768982 13.525642216205597 C 23.18518614768982 13.139173984527588 23.480270862579346 12.81738132238388 23.94003188610077 12.623671650886536 C 23.94003188610077 12.623671650886536 29.12019646167755 10.36636745929718 29.12019646167755 10.36636745929718 C 29.874090313911438 10.044257760047913 30.366215467453003 10.301374852657318 30.366215467453003 11.043241679668427 C 30.366215467453003 11.043241679668427 30.366215467453003 20.394885182380676 30.366215467453003 20.394885182380676 C 31.316197872161865 19.42665386199951 32.69357717037201 18.87881374359131 34.36604118347168 18.87881374359131 C 37.218844056129456 18.87881374359131 40.234419465065 20.457975566387177 40.595184326171875 25.327031433582306 C 40.595184326171875 25.327031433582306 41.021629333496094 31.131029725074768 41.021629333496094 31.131029725074768 C 41.152989625930786 32.614446341991425 42.20292007923126 33.000914573669434 42.20292007923126 33.93649107217789 Z M 58.33358323574066 30.03408133983612 C 58.23458707332611 31.808220982551575 56.366034507751465 35.0001505613327 51.64372718334198 35.0001505613327 C 46.791011452674866 35.0001505613327 43.34803915023804 31.711524665355682 43.34803915023804 26.842468798160553 C 43.34803915023804 22.038405537605286 47.087048053741455 18.91146856546402 51.480002760887146 18.87881374359131 C 55.3827360868454 18.846475958824158 58.00518250465393 20.716360807418823 58.00518250465393 23.553842902183533 C 58.00518250465393 25.811147093772888 55.84154522418976 27.681031942367554 52.75838589668274 28.164513528347015 C 51.61136305332184 28.35822319984436 50.46434020996094 28.422581732273102 49.48008990287781 28.39056098461151 C 50.33202803134918 30.00301170349121 51.77508747577667 31.002312660217285 53.61127591133118 31.002312660217285 C 55.25042390823364 31.002312660217285 56.5297589302063 30.35745918750763 57.11992835998535 29.58325457572937 C 57.57873749732971 29.13242781162262 58.36499547958374 29.325820446014404 58.33358323574066 30.03408133983612 Z M 48.56247162818909 24.19869637489319 C 48.56247162818909 25.06959730386734 48.660515904426575 25.90720933675766 48.85660445690155 26.68109691143036 C 49.48008990287781 26.71343469619751 50.07025933265686 26.68109691143036 50.49670433998108 26.616738379001617 C 51.93976378440857 26.35898721218109 52.7260217666626 25.359052181243896 52.7260217666626 23.135353922843933 C 52.69270575046539 21.716295838356018 51.875035524368286 20.58732670545578 50.791789054870605 20.58732670545578 C 49.4467738866806 20.58732670545578 48.56247162818909 22.070743322372437 48.56247162818909 24.19869637489319 Z M 88.49695241451263 23.586180686950684 C 88.49695241451263 23.586180686950684 88.49695241451263 23.715531826019287 88.49695241451263 23.715531826019287 C 88.49695241451263 24.61781942844391 86.89016854763031 25.00492173433304 86.89016854763031 26.520993173122406 C 86.89016854763031 26.520993173122406 86.89016854763031 34.13020074367523 86.89016854763031 34.13020074367523 C 86.89016854763031 34.58134454488754 86.56271970272064 35.0001505613327 86.07154643535614 35.0001505613327 C 85.77550983428955 35.0001505613327 85.41474497318268 34.93579202890396 85.12061214447021 34.645703077316284 C 85.12061214447021 34.645703077316284 83.77559697628021 33.13026571273804 83.77559697628021 33.13026571273804 C 82.26780927181244 34.290621519088745 79.80908727645874 35.0001505613327 77.90626680850983 35.0001505613327 C 70.6928733587265 35.0001505613327 66.26755452156067 29.486241221427917 66.26755452156067 23.198761343955994 C 66.26755452156067 15.879642724990845 71.90652823448181 11.494385480880737 77.34941339492798 11.494385480880737 C 82.92365884780884 11.494385480880737 86.98916471004486 14.171763837337494 86.98916471004486 17.460072696208954 C 86.98916471004486 19.039551556110382 85.97255027294159 20.071507334709167 84.36576640605927 20.071507334709167 C 80.16985213756561 20.071507334709167 79.6120468378067 13.784027457237244 75.87303793430328 13.784027457237244 C 73.61230826377869 13.784027457237244 72.07120454311371 16.170365750789642 72.07120454311371 19.39431607723236 C 72.07120454311371 25.714450776576996 75.41518068313599 30.77594816684723 79.51305067539215 30.77594816684723 C 80.33262467384338 30.77594816684723 80.9237459897995 30.680202960968018 81.34923911094666 30.42181771993637 C 81.34923911094666 30.42181771993637 81.34923911094666 26.488338351249695 81.34923911094666 26.488338351249695 C 81.34923911094666 25.00492173433304 79.54636669158936 24.61781942844391 79.54636669158936 23.683194041252136 C 79.54636669158936 23.683194041252136 79.54636669158936 23.553842902183533 79.54636669158936 23.553842902183533 C 79.54636669158936 23.198761343955994 79.90713155269623 22.941327214241028 80.39830482006073 22.941327214241028 C 80.39830482006073 22.941327214241028 87.7106944322586 22.97366499900818 87.7106944322586 22.97366499900818 C 88.16950356960297 22.97366499900818 88.49695241451263 23.198761343955994 88.49695241451263 23.586180686950684 Z M 107.02065742015839 33.80713993310928 C 107.02065742015839 34.645703077316284 105.1197407245636 34.8707994222641 103.31591641902924 34.8707994222641 C 101.34836769104004 34.8707994222641 100.39743340015411 34.48433119058609 100.13566470146179 33.32365834712982 C 99.44745099544525 34.258283734321594 98.13575184345245 35.0001505613327 95.97116267681122 35.0001505613327 C 92.4634621143341 35.0001505613327 89.77438366413116 33.420671701431274 89.77438366413116 30.098756909370422 C 89.77438366413116 26.842468798160553 92.5615063905716 25.166293621063232 95.67607796192169 25.166293621063232 C 97.05345726013184 25.166293621063232 98.1681159734726 25.4884033203125 98.98673808574677 25.97188490629196 C 98.98673808574677 25.97188490629196 98.98673808574677 25.87613970041275 98.98673808574677 25.87613970041275 C 98.59360909461975 22.070743322372437 98.36515641212463 20.425954818725586 96.65937638282776 20.425954818725586 C 94.39674293994904 20.425954818725586 95.31436121463776 24.74653649330139 92.3968300819397 24.74653649330139 C 91.02040266990662 24.74653649330139 90.10183250904083 23.90797334909439 90.10183250904083 22.65092122554779 C 90.10183250904083 20.007148802280426 93.31540024280548 18.87881374359131 96.65937638282776 18.87881374359131 C 101.05328297615051 18.87881374359131 104.10217440128326 21.39355206489563 104.62666368484497 25.391389966011047 C 104.62666368484497 25.391389966011047 105.34914529323578 31.16368454694748 105.34914529323578 31.16368454694748 C 105.64327812194824 33.453009486198425 107.02065742015839 32.90421825647354 107.02065742015839 33.80713993310928 Z M 99.4798151254654 31.034333407878876 C 99.4798151254654 31.034333407878876 99.34750294685364 29.55091679096222 99.34750294685364 29.55091679096222 C 99.11905026435852 27.616673409938812 98.26520836353302 26.874806582927704 97.31522595882416 26.874806582927704 C 96.33192753791809 26.874806582927704 95.64276194572449 27.745390474796295 95.64276194572449 29.067435204982758 C 95.64276194572449 31.357394218444824 96.42997181415558 33.35631316900253 97.77498698234558 33.35631316900253 C 98.85632967948914 33.35631316900253 99.4798151254654 32.13033068180084 99.4798151254654 31.034333407878876 Z M 121.90530157089233 22.070743322372437 C 121.90530157089233 23.683194041252136 121.28276801109314 25.10193508863449 119.38089942932129 25.10193508863449 C 116.39673626422882 25.10193508863449 117.74079954624176 22.070743322372437 116.1016515493393 22.070743322372437 C 115.05362486839294 22.070743322372437 114.88894855976105 23.747552573680878 114.88894855976105 25.166293621063232 C 114.88894855976105 25.166293621063232 114.88894855976105 31.16368454694748 114.88894855976105 31.16368454694748 C 114.88894855976105 32.647101163864136 116.62709271907806 33.033252358436584 116.62709271907806 33.93649107217789 C 116.62709271907806 33.93649107217789 116.62709271907806 34.06552517414093 116.62709271907806 34.06552517414093 C 116.62709271907806 34.45199340581894 116.29869198799133 34.678040862083435 115.84083473682404 34.678040862083435 C 115.84083473682404 34.678040862083435 108.79116570949554 34.678040862083435 108.79116570949554 34.678040862083435 C 108.33140468597412 34.678040862083435 108.00300395488739 34.45199340581894 108.00300395488739 34.06552517414093 C 108.00300395488739 34.06552517414093 108.00300395488739 33.93649107217789 108.00300395488739 33.93649107217789 C 108.00300395488739 33.033252358436584 109.31470310688019 32.647101163864136 109.31470310688019 31.16368454694748 C 109.31470310688019 31.16368454694748 109.31470310688019 24.74653649330139 109.31470310688019 24.74653649330139 C 109.31470310688019 23.231099128723145 107.74123525619507 23.102699100971222 107.74123525619507 22.16743963956833 C 107.74123525619507 22.16743963956833 107.74123525619507 22.070743322372437 107.74123525619507 22.070743322372437 C 107.74123525619507 21.684275090694427 108.00300395488739 21.39355206489563 108.49608099460602 21.135166823863983 C 108.49608099460602 21.135166823863983 113.11844027042389 19.007847845554352 113.11844027042389 19.007847845554352 C 113.97133028507233 18.620428502559662 114.29973101615906 19.071572303771973 114.29973101615906 19.71642577648163 C 114.29973101615906 19.71642577648163 114.29973101615906 22.070743322372437 114.29973101615906 22.070743322372437 C 115.02030885219574 20.007148802280426 116.56141257286072 18.87881374359131 118.82404601573944 18.87881374359131 C 120.7592306137085 18.87881374359131 121.90530157089233 20.265217006206512 121.90530157089233 22.070743322372437 Z M 141.70834159851074 33.96851181983948 C 141.70834159851074 33.96851181983948 141.70834159851074 34.09786295890808 141.70834159851074 34.09786295890808 C 141.70834159851074 34.48433119058609 141.38089275360107 34.710061609745026 140.9220836162567 34.710061609745026 C 140.9220836162567 34.710061609745026 134.36358785629272 34.710061609745026 134.36358785629272 34.710061609745026 C 133.87241458892822 34.710061609745026 133.57828176021576 34.48433119058609 133.57828176021576 34.09786295890808 C 133.57828176021576 34.09786295890808 133.57828176021576 33.96851181983948 133.57828176021576 33.96851181983948 C 133.57828176021576 33.033252358436584 134.8557130098343 32.647101163864136 134.75671684741974 31.16368454694748 C 134.75671684741974 31.16368454694748 134.42926800251007 25.391389966011047 134.42926800251007 25.391389966011047 C 134.26554358005524 22.19977742433548 133.64301002025604 21.00708383321762 132.1675864458084 21.00708383321762 C 130.72452700138092 21.00708383321762 130.03631329536438 22.26413595676422 130.03631329536438 24.134020805358887 C 130.03631329536438 24.134020805358887 130.03631329536438 31.16368454694748 130.03631329536438 31.16368454694748 C 130.03631329536438 32.647101163864136 131.4784208536148 33.033252358436584 131.4784208536148 33.96851181983948 C 131.4784208536148 33.96851181983948 131.4784208536148 34.09786295890808 131.4784208536148 34.09786295890808 C 131.4784208536148 34.48433119058609 131.18333613872528 34.710061609745026 130.69216287136078 34.710061609745026 C 130.69216287136078 34.710061609745026 123.60917782783508 34.710061609745026 123.60917782783508 34.710061609745026 C 123.11800456047058 34.710061609745026 122.82291984558105 34.48433119058609 122.82291984558105 34.09786295890808 C 122.82291984558105 34.09786295890808 122.82291984558105 33.96851181983948 122.82291984558105 33.96851181983948 C 122.82291984558105 33.033252358436584 124.26597929000854 32.647101163864136 124.26597929000854 31.16368454694748 C 124.26597929000854 31.16368454694748 124.26597929000854 24.811212062835693 124.26597929000854 24.811212062835693 C 124.26597929000854 23.263436913490295 122.52783513069153 23.07067835330963 122.52783513069153 22.13541889190674 C 122.52783513069153 22.13541889190674 122.52783513069153 22.038405537605286 122.52783513069153 22.038405537605286 C 122.52783513069153 21.651937305927277 122.8552839756012 21.45791059732437 123.31504499912262 21.232180178165436 C 123.31504499912262 21.232180178165436 127.90504014492035 19.007847845554352 127.90504014492035 19.007847845554352 C 128.72461414337158 18.58809071779251 129.1510591506958 19.136564910411835 129.1510591506958 19.78110134601593 C 129.1510591506958 19.78110134601593 129.1510591506958 21.296538710594177 129.1510591506958 21.296538710594177 C 130.03631329536438 19.74876356124878 131.67546129226685 18.87881374359131 133.84005045890808 18.87881374359131 C 136.6919014453888 18.87881374359131 139.7084287405014 20.457975566387177 140.10155773162842 25.585416674613953 C 140.10155773162842 25.585416674613953 140.52800273895264 31.16368454694748 140.52800273895264 31.16368454694748 C 140.62604701519012 32.647101163864136 141.70834159851074 33.033252358436584 141.70834159851074 33.96851181983948 Z M 143.01908886432648 34.06552517414093 C 143.01908886432648 34.06552517414093 143.01908886432648 33.93649107217789 143.01908886432648 33.93649107217789 C 143.01908886432648 33.000914573669434 144.33078801631927 32.614446341991425 144.33078801631927 31.131029725074768 C 144.33078801631927 31.131029725074768 144.33078801631927 25.00492173433304 144.33078801631927 25.00492173433304 C 144.33078801631927 23.521822154521942 143.01908886432648 23.07067835330963 143.01908886432648 22.296473741531372 C 143.01908886432648 22.296473741531372 143.01908886432648 22.16743963956833 143.01908886432648 22.16743963956833 C 143.01908886432648 21.81235808134079 143.31512546539307 21.651937305927277 143.77298271656036 21.42588984966278 C 143.77298271656036 21.42588984966278 148.72374272346497 19.039551556110382 148.72374272346497 19.039551556110382 C 149.64231288433075 18.58809071779251 150.1991662979126 19.103910088539124 150.1991662979126 19.71642577648163 C 150.1991662979126 19.71642577648163 150.1991662979126 31.131029725074768 150.1991662979126 31.131029725074768 C 150.1991662979126 32.614446341991425 151.6755417585373 33.000914573669434 151.6755417585373 33.93649107217789 C 151.6755417585373 33.93649107217789 151.6755417585373 34.06552517414093 151.6755417585373 34.06552517414093 C 151.6755417585373 34.45199340581894 151.34809291362762 34.678040862083435 150.85596776008606 34.678040862083435 C 150.85596776008606 34.678040862083435 143.8053468465805 34.678040862083435 143.8053468465805 34.678040862083435 C 143.31512546539307 34.678040862083435 143.01908886432648 34.45199340581894 143.01908886432648 34.06552517414093 Z M 143.54453003406525 14.074750483036041 C 143.54453003406525 12.236252307891846 145.05231773853302 10.849532008171082 147.31399929523468 10.849532008171082 C 149.54426860809326 10.849532008171082 151.05205631256104 12.236252307891846 151.05205631256104 14.074750483036041 C 151.05205631256104 15.879642724990845 149.54426860809326 17.29870080947876 147.31399929523468 17.29870080947876 C 145.05231773853302 17.29870080947876 143.54453003406525 15.879642724990845 143.54453003406525 14.074750483036041 Z M 153.01865315437317 31.19570529460907 C 153.01865315437317 29.744626462459564 154.0362194776535 29.13242781162262 155.34696674346924 29.13242781162262 C 158.62621462345123 29.13242781162262 157.5106040239334 33.54875469207764 160.23299849033356 33.54875469207764 C 161.21534502506256 33.54875469207764 162.00255489349365 33.065273106098175 162.00255489349365 31.775883197784424 C 162.00255489349365 27.55199784040451 153.31468975543976 30.03408133983612 153.31468975543976 23.77989035844803 C 153.31468975543976 20.910070478916168 156.13417661190033 18.87881374359131 160.23299849033356 18.87881374359131 C 164.39559674263 18.87881374359131 167.11894309520721 20.65168523788452 167.11894309520721 22.747617542743683 C 167.11894309520721 23.87626963853836 166.13469278812408 24.71419870853424 164.92103791236877 24.71419870853424 C 161.74078619480133 24.71419870853424 162.7907166481018 20.362230360507965 160.52713131904602 20.362230360507965 C 159.5114687681198 20.362230360507965 158.9869794845581 21.264200925827026 158.9869794845581 22.19977742433548 C 158.9869794845581 26.616738379001617 167.38071179389954 24.29570972919464 167.38071179389954 30.228108048439026 C 167.38071179389954 32.90421825647354 164.79062950611115 34.96781277656555 160.23299849033356 34.96781277656555 C 156.10086059570312 34.96781277656555 153.01865315437317 33.453009486198425 153.01865315437317 31.19570529460907 Z M 187.61019682884216 33.93649107217789 C 187.61019682884216 33.93649107217789 187.61019682884216 34.06552517414093 187.61019682884216 34.06552517414093 C 187.61019682884216 34.45199340581894 187.31416022777557 34.678040862083435 186.82298696041107 34.678040862083435 C 186.82298696041107 34.678040862083435 180.2978072166443 34.678040862083435 180.2978072166443 34.678040862083435 C 179.80568206310272 34.678040862083435 179.51154923439026 34.45199340581894 179.51154923439026 34.06552517414093 C 179.51154923439026 34.06552517414093 179.51154923439026 33.93649107217789 179.51154923439026 33.93649107217789 C 179.51154923439026 33.000914573669434 180.75661635398865 32.614446341991425 180.69188809394836 31.131029725074768 C 180.69188809394836 31.131029725074768 180.36348736286163 25.13395583629608 180.36348736286163 25.13395583629608 C 180.19881105422974 22.19977742433548 179.5772293806076 21.00708383321762 178.06944167613983 21.00708383321762 C 176.62638223171234 21.00708383321762 175.93721663951874 22.26413595676422 175.93721663951874 24.134020805358887 C 175.93721663951874 24.134020805358887 175.93721663951874 31.16368454694748 175.93721663951874 31.16368454694748 C 175.93721663951874 32.647101163864136 177.4116883277893 33.000914573669434 177.4116883277893 33.93649107217789 C 177.4116883277893 33.93649107217789 177.4116883277893 34.06552517414093 177.4116883277893 34.06552517414093 C 177.4116883277893 34.45199340581894 177.0851913690567 34.678040862083435 176.62638223171234 34.678040862083435 C 176.62638223171234 34.678040862083435 169.51008117198944 34.678040862083435 169.51008117198944 34.678040862083435 C 169.05222392082214 34.678040862083435 168.75618731975555 34.45199340581894 168.75618731975555 34.06552517414093 C 168.75618731975555 34.06552517414093 168.75618731975555 33.93649107217789 168.75618731975555 33.93649107217789 C 168.75618731975555 33.000914573669434 170.19924676418304 32.647101163864136 170.19924676418304 31.16368454694748 C 170.19924676418304 31.16368454694748 170.19924676418304 16.203020572662354 170.19924676418304 16.203020572662354 C 170.19924676418304 14.686949133872986 168.59246289730072 14.525577247142792 168.59246289730072 13.62265557050705 C 168.59246289730072 13.62265557050705 168.59246289730072 13.525642216205597 168.59246289730072 13.525642216205597 C 168.59246289730072 13.139173984527588 168.8884994983673 12.81738132238388 169.3463567495346 12.623671650886536 C 169.3463567495346 12.623671650886536 174.52747321128845 10.36636745929718 174.52747321128845 10.36636745929718 C 175.2823189496994 10.044257760047913 175.7734922170639 10.301374852657318 175.7734922170639 11.043241679668427 C 175.7734922170639 11.043241679668427 175.7734922170639 20.394885182380676 175.7734922170639 20.394885182380676 C 176.72442650794983 19.42665386199951 178.1008539199829 18.87881374359131 179.77331793308258 18.87881374359131 C 182.62707269191742 18.87881374359131 185.64264810085297 20.457975566387177 186.00341296195984 25.327031433582306 C 186.00341296195984 25.327031433582306 186.42985796928406 31.131029725074768 186.42985796928406 31.131029725074768 C 186.5602663755417 32.614446341991425 187.61019682884216 33.000914573669434 187.61019682884216 33.93649107217789 Z M 332.44158244132996 7.125931203365326 C 332.44158244132996 11.132329106330872 329.13948929309845 14.380374252796173 325.0644645690918 14.380374252796173 C 325.0644645690918 14.380374252796173 322.6057425737381 14.380374252796173 322.6057425737381 14.380374252796173 C 322.6057425737381 14.380374252796173 322.6057425737381 11.961698174476624 322.6057425737381 11.961698174476624 C 322.6057425737381 7.955617308616638 325.9078357219696 4.707255125045776 329.98286044597626 4.707255125045776 C 329.98286044597626 4.707255125045776 332.44158244132996 4.707255125045776 332.44158244132996 4.707255125045776 C 332.44158244132996 4.707255125045776 332.44158244132996 7.125931203365326 332.44158244132996 7.125931203365326 Z M 317.09336972236633 5.794375360012054 C 317.09336972236633 6.859937071800232 317.97481632232666 7.7267165184021 319.0571109056473 7.7267165184021 C 320.141309261322 7.7267165184021 321.02275586128235 6.859937071800232 321.02275586128235 5.794375360012054 C 321.02275586128235 4.728813648223877 320.141309261322 3.8620342016220093 319.0571109056473 3.8620342016220093 C 317.97481632232666 3.8620342016220093 317.09336972236633 4.728813648223877 317.09336972236633 5.794375360012054 Z M 334.1940048933029 13.920987486839294 C 334.1940048933029 14.665390610694885 334.8089233636856 15.270614445209503 335.5656728744507 15.270614445209503 C 336.32242238521576 15.270614445209503 336.9382927417755 14.665390610694885 336.9382927417755 13.920987486839294 C 336.9382927417755 13.176901400089264 336.32242238521576 12.571677565574646 335.5656728744507 12.571677565574646 C 334.8089233636856 12.571677565574646 334.1940048933029 13.176901400089264 334.1940048933029 13.920987486839294 Z M 339.5797768831253 9.93646514415741 C 339.5797768831253 13.032966554164886 342.1413025856018 15.551826357841492 345.2891901731491 15.551826357841492 C 348.4380296468735 15.551826357841492 351.00050723552704 13.032966554164886 351.00050723552704 9.93646514415741 C 351.00050723552704 6.839963734149933 348.4380296468735 4.321103930473328 345.2891901731491 4.321103930473328 C 342.1413025856018 4.321103930473328 339.5797768831253 6.839963734149933 339.5797768831253 9.93646514415741 Z M 345.2891901731491 6.816820025444031 C 347.03970885276794 6.816820025444031 348.46182680130005 8.216221809387207 348.46182680130005 9.93646514415741 C 348.46182680130005 11.656708478927612 347.03970885276794 13.056110262870789 345.2891901731491 13.056110262870789 C 343.5405752658844 13.056110262870789 342.11750543117523 11.656708478927612 342.11750543117523 9.93646514415741 C 342.11750543117523 8.216221809387207 343.5405752658844 6.816820025444031 345.2891901731491 6.816820025444031 Z M 345.2891901731491 11.808252215385437 C 346.3391206264496 11.808252215385437 347.1929625272751 10.968737959861755 347.1929625272751 9.93646514415741 C 347.1929625272751 8.904192328453064 346.3391206264496 8.064678072929382 345.2891901731491 8.064678072929382 C 344.2402116060257 8.064678072929382 343.3863697052002 8.904192328453064 343.3863697052002 9.93646514415741 C 343.3863697052002 10.968737959861755 344.2402116060257 11.808252215385437 345.2891901731491 11.808252215385437 Z M 282.4637506008148 6.48107773065567 C 282.4485204219818 6.689371109008789 282.4313864707947 6.897347450256348 282.4313864707947 7.10944527387619 C 282.4313864707947 11.725188493728638 286.1960963010788 15.46686041355133 290.8403489589691 15.46686041355133 C 295.48460161685944 15.46686041355133 299.2483595609665 11.725188493728638 299.2483595609665 7.10944527387619 C 299.2483595609665 6.897347450256348 299.2331293821335 6.689371109008789 299.2169473171234 6.48107773065567 C 299.2169473171234 6.48107773065567 282.4637506008148 6.48107773065567 282.4637506008148 6.48107773065567 Z M 315.31619822978973 12.800261318683624 C 315.31334257125854 15.386015951633453 313.1820694208145 17.480997145175934 310.55295979976654 17.483850479125977 C 310.55295979976654 17.483850479125977 308.24082827568054 17.483850479125977 308.24082827568054 17.483850479125977 C 305.6136224269867 17.480997145175934 303.48234927654266 15.386015951633453 303.4785417318344 12.800261318683624 C 303.4785417318344 12.800261318683624 303.4785417318344 12.466738283634186 303.4785417318344 12.466738283634186 C 303.4785417318344 8.948260486125946 309.39832186698914 1.9981730580329895 309.39832186698914 1.9981730580329895 C 309.39832186698914 1.9981730580329895 315.31619822978973 9.13023978471756 315.31619822978973 12.466738283634186 C 315.31619822978973 12.466738283634186 315.31619822978973 12.800261318683624 315.31619822978973 12.800261318683624 Z"/></g></svg>