<svg version="1.1" xmlns="http://www.w3.org/2000/svg" xmlns:xlink="http://www.w3.org/1999/xlink" width="352" height="37"><defs/><g><path fill="rgb(0,0,0)" stroke="none" paint-order="stroke fill markers" fill-rule="evenodd" d=" M 195.5200846195221 29.19710338115692 C 195.5200846195221 28.64926326274872 195.81516933441162 28.261526882648468 196.40533876419067 28.261526882648468 C 198.1434829235077 28.29386466741562 197.61804175376892 33.807774007320404 204.6343947649002 33.807774007320404 C 208.20872735977173 33.807774007320404 210.63603711128235 31.872896552085876 210.63603711128235 29.10009002685547 C 210.63603711128235 20.426905930042267 196.24161434173584 27.13319182395935 196.24161434173584 17.460072696208954 C 196.24161434173584 13.881040811538696 199.16009736061096 11.301626920700073 204.11085736751556 11.301626920700073 C 209.68510282039642 11.301626920700073 212.30754923820496 14.4288809299469 212.30754923820496 16.364392459392548 C 212.30754923820496 16.944887399673462 212.01246452331543 17.29870080947876 211.38897907733917 17.29870080947876 C 209.5213783979416 17.29870080947876 210.6036729812622 12.269541203975677 204.04517722129822 12.269541203975677 C 200.34043622016907 12.269541203975677 198.24152719974518 14.333135724067688 198.24152719974518 17.137328922748566 C 198.24152719974518 25.166610658168793 212.6359499692917 18.814455211162567 212.6359499692917 28.7779803276062 C 212.6359499692917 32.42073667049408 209.09493339061737 34.80739200115204 204.56966650485992 34.80739200115204 C 198.1434829235077 34.80739200115204 195.5200846195221 30.841891884803772 195.5200846195221 29.19710338115692 Z M 217.02795279026031 30.292783617973328 C 217.02795279026031 30.292783617973328 217.02795279026031 20.007148802280426 217.02795279026031 20.007148802280426 C 217.02795279026031 20.007148802280426 214.5025987625122 20.007148802280426 214.5025987625122 20.007148802280426 C 214.2741460800171 20.007148802280426 214.1094697713852 19.846728026866913 214.1094697713852 19.620680570602417 C 214.1094697713852 19.620680570602417 214.1094697713852 19.39431607723236 214.1094697713852 19.39431607723236 C 214.1094697713852 19.169853806495667 214.24178194999695 19.007847845554352 214.5025987625122 19.007847845554352 C 214.5025987625122 19.007847845554352 215.8809299468994 19.007847845554352 215.8809299468994 19.007847845554352 C 217.32303750514984 19.007847845554352 217.7818466424942 17.783450543880463 217.88084280490875 16.00931090116501 C 217.91415882110596 15.622842669487 218.0445672273636 15.396478176116943 218.3396519422531 15.396478176116943 C 218.3396519422531 15.396478176116943 218.5357404947281 15.396478176116943 218.5357404947281 15.396478176116943 C 218.86414122581482 15.396478176116943 218.92982137203217 15.622842669487 218.92982137203217 16.00931090116501 C 218.92982137203217 16.00931090116501 218.9955015182495 19.007847845554352 218.9955015182495 19.007847845554352 C 218.9955015182495 19.007847845554352 223.88058137893677 19.007847845554352 223.88058137893677 19.007847845554352 C 224.10998594760895 19.007847845554352 224.27371037006378 19.169853806495667 224.27371037006378 19.39431607723236 C 224.27371037006378 19.39431607723236 224.27371037006378 19.620680570602417 224.27371037006378 19.620680570602417 C 224.27371037006378 19.846728026866913 224.10998594760895 20.007148802280426 223.88058137893677 20.007148802280426 C 223.88058137893677 20.007148802280426 218.9955015182495 20.007148802280426 218.9955015182495 20.007148802280426 C 218.9955015182495 20.007148802280426 218.9955015182495 30.292783617973328 218.9955015182495 30.292783617973328 C 218.9955015182495 32.32435739040375 219.8807556629181 33.32397538423538 221.22481894493103 33.32397538423538 C 222.73355853557587 33.32397538423538 223.6511768102646 32.45307445526123 223.71685695648193 31.19570529460907 C 223.84821724891663 30.712223708629608 224.63447523117065 30.712223708629608 224.63447523117065 31.260697901248932 C 224.63447523117065 33.097927927970886 223.19236767292023 34.77537125349045 220.83168995380402 34.77537125349045 C 218.5357404947281 34.77537125349045 217.02795279026031 33.35631316900253 217.02795279026031 30.292783617973328 Z M 242.47091841697693 34.09786295890808 C 242.47091841697693 34.58134454488754 242.01210927963257 34.678357899188995 240.89649868011475 34.678357899188995 C 239.68284380435944 34.678357899188995 238.66718125343323 34.09786295890808 238.73286139965057 32.291702568531036 C 238.73286139965057 32.291702568531036 238.6348171234131 31.776200234889984 238.6348171234131 31.776200234889984 C 237.6829309463501 33.6784228682518 235.81437838077545 34.80739200115204 233.45370066165924 34.80739200115204 C 229.7489596605301 34.80739200115204 227.38828194141388 31.96990990638733 227.38828194141388 27.1008540391922 C 227.38828194141388 27.1008540391922 227.38828194141388 21.296855747699738 227.38828194141388 21.296855747699738 C 227.38828194141388 20.20085847377777 226.20794308185577 20.20085847377777 226.20794308185577 19.68535614013672 C 226.20794308185577 19.68535614013672 226.20794308185577 19.652701318264008 226.20794308185577 19.652701318264008 C 226.20794308185577 19.426970899105072 226.3716675043106 19.29793679714203 226.60202395915985 19.233261227607727 C 226.60202395915985 19.233261227607727 228.63430094718933 18.782117426395416 228.63430094718933 18.782117426395416 C 229.06074595451355 18.685104072093964 229.32251465320587 18.717758893966675 229.32251465320587 19.104861199855804 C 229.32251465320587 19.104861199855804 229.29015052318573 27.230205178260803 229.29015052318573 27.230205178260803 C 229.29015052318573 31.357394218444824 230.9292985200882 33.807774007320404 233.7811495065689 33.807774007320404 C 236.47022795677185 33.807774007320404 238.60150110721588 31.67918688058853 238.60150110721588 28.35822319984436 C 238.60150110721588 28.35822319984436 238.60150110721588 21.296855747699738 238.60150110721588 21.296855747699738 C 238.60150110721588 20.20085847377777 237.3564339876175 20.233196258544922 237.3564339876175 19.68535614013672 C 237.3564339876175 19.68535614013672 237.3564339876175 19.652701318264008 237.3564339876175 19.652701318264008 C 237.3564339876175 19.426970899105072 237.45447826385498 19.29793679714203 237.71719884872437 19.233261227607727 C 237.71719884872437 19.233261227607727 239.84752011299133 18.782117426395416 239.84752011299133 18.782117426395416 C 240.27396512031555 18.685104072093964 240.50336968898773 18.717758893966675 240.50336968898773 19.104861199855804 C 240.50336968898773 19.104861199855804 240.50336968898773 32.00224769115448 240.50336968898773 32.00224769115448 C 240.50336968898773 34.259551882743835 242.47091841697693 33.32397538423538 242.47091841697693 34.09786295890808 Z M 260.4054058790207 34.13051778078079 C 260.4054058790207 34.13051778078079 260.4054058790207 34.227214097976685 260.4054058790207 34.227214097976685 C 260.4054058790207 34.3876348733902 260.27309370040894 34.48433119058609 260.0113250017166 34.48433119058609 C 260.0113250017166 34.48433119058609 257.8790999650955 34.48433119058609 257.8790999650955 34.48433119058609 C 257.61828315258026 34.48433119058609 257.45360684394836 34.291889667510986 257.45360684394836 34.06552517414093 C 257.45360684394836 34.06552517414093 257.3888785839081 31.872896552085876 257.3888785839081 31.872896552085876 C 256.2742198705673 33.807774007320404 254.1096307039261 34.80739200115204 252.0107216835022 34.80739200115204 C 247.97757995128632 34.80739200115204 244.50224351882935 31.454090535640717 244.50224351882935 26.6823650598526 C 244.50224351882935 22.038405537605286 247.6824952363968 18.685104072093964 252.1420819759369 18.685104072093964 C 254.33903527259827 18.685104072093964 256.2742198705673 19.74971467256546 257.3555625677109 21.296855747699738 C 257.3555625677109 21.296855747699738 257.3555625677109 13.23618733882904 257.3555625677109 13.23618733882904 C 257.3555625677109 11.914459645748138 256.1095435619354 12.075831532478333 256.1095435619354 11.56032919883728 C 256.1095435619354 11.56032919883728 256.1095435619354 11.495336592197418 256.1095435619354 11.495336592197418 C 256.1095435619354 11.333964705467224 256.2409038543701 11.17259281873703 256.53598856925964 11.075579464435577 C 256.53598856925964 11.075579464435577 258.37217700481415 10.398705244064331 258.37217700481415 10.398705244064331 C 258.9623464345932 10.173925936222076 259.2250670194626 10.33402967453003 259.2250670194626 10.786124587059021 C 259.2250670194626 10.786124587059021 259.2250670194626 32.647101163864136 259.2250670194626 32.647101163864136 C 259.2250670194626 33.6784228682518 260.4054058790207 33.6784228682518 260.4054058790207 34.13051778078079 Z M 257.3555625677109 28.74595957994461 C 257.3555625677109 28.74595957994461 257.3555625677109 24.23103415966034 257.3555625677109 24.23103415966034 C 257.3555625677109 22.13541889190674 255.060564994812 19.556322038173676 251.97835755348206 19.556322038173676 C 248.76574170589447 19.556322038173676 246.4041121006012 22.329128563404083 246.37174797058105 26.100919008255005 C 246.33843195438385 30.550851821899414 248.8961501121521 33.904153287410736 252.5352109670639 33.93649107217789 C 254.6341199874878 33.93649107217789 257.3555625677109 32.163619577884674 257.3555625677109 28.74595957994461 Z M 263.190624833107 34.13051778078079 C 263.190624833107 34.13051778078079 263.190624833107 34.00116664171219 263.190624833107 34.00116664171219 C 263.190624833107 33.51768505573273 264.3709636926651 33.61469841003418 264.3709636926651 32.614763379096985 C 264.3709636926651 32.614763379096985 264.3709636926651 21.81330919265747 264.3709636926651 21.81330919265747 C 264.3709636926651 20.684340059757233 263.2239408493042 20.459243714809418 263.2239408493042 20.10416215658188 C 263.2239408493042 20.10416215658188 263.2239408493042 20.007148802280426 263.2239408493042 20.007148802280426 C 263.2239408493042 19.846728026866913 263.38766527175903 19.78205245733261 263.6170698404312 19.652701318264008 C 263.6170698404312 19.652701318264008 265.3866262435913 18.782117426395416 265.3866262435913 18.782117426395416 C 265.9786994457245 18.52404922246933 266.27283227443695 18.749779641628265 266.27283227443695 19.169853806495667 C 266.27283227443695 19.169853806495667 266.27283227443695 32.614763379096985 266.27283227443695 32.614763379096985 C 266.27283227443695 33.61469841003418 267.4855352640152 33.51768505573273 267.4855352640152 34.00116664171219 C 267.4855352640152 34.00116664171219 267.4855352640152 34.13051778078079 267.4855352640152 34.13051778078079 C 267.4855352640152 34.322959303855896 267.2237665653229 34.48433119058609 266.863001704216 34.48433119058609 C 266.863001704216 34.48433119058609 263.81411027908325 34.48433119058609 263.81411027908325 34.48433119058609 C 263.4533454179764 34.48433119058609 263.190624833107 34.322959303855896 263.190624833107 34.13051778078079 Z M 263.4533454179764 13.978054165840149 C 263.4533454179764 12.978753209114075 264.1415591239929 12.333265662193298 265.1581735610962 12.333265662193298 C 266.10815596580505 12.333265662193298 266.7649574279785 12.978753209114075 266.7649574279785 13.978054165840149 C 266.7649574279785 14.945651412010193 266.10815596580505 15.558167099952698 265.1581735610962 15.558167099952698 C 264.1415591239929 15.558167099952698 263.4533454179764 14.945651412010193 263.4533454179764 13.978054165840149 Z M 270.0746656656265 26.456000566482544 C 270.0746656656265 22.070743322372437 273.3872295618057 18.717758893966675 277.91249644756317 18.717758893966675 C 282.5024915933609 18.717758893966675 285.91119599342346 22.296790778636932 285.91119599342346 26.907461404800415 C 285.91119599342346 31.389732003211975 282.79662442207336 34.77537125349045 278.3056254386902 34.77537125349045 C 273.4852738380432 34.77537125349045 270.0746656656265 30.937320053577423 270.0746656656265 26.456000566482544 Z M 283.97791516780853 27.51966005563736 C 283.97791516780853 22.97398203611374 281.32120084762573 19.556322038173676 277.6164598464966 19.556322038173676 C 274.403843998909 19.556322038173676 272.0098502635956 22.19977742433548 272.0098502635956 25.90816044807434 C 272.0098502635956 30.164383590221405 274.69797682762146 33.93649107217789 278.63307428359985 33.93649107217789 C 281.6486496925354 33.93649107217789 283.97791516780853 31.22836011648178 283.97791516780853 27.51966005563736 Z M 7.84144651889801 34.06552517414093 C 7.84144651889801 34.06552517414093 7.84144651889801 33.93649107217789 7.84144651889801 33.93649107217789 C 7.84144651889801 33.033252358436584 9.251189947128296 32.647101163864136 9.251189947128296 31.16368454694748 C 9.251189947128296 31.16368454694748 9.251189947128296 14.203784584999084 9.251189947128296 14.203784584999084 C 9.251189947128296 14.203784584999084 7.513997673988342 14.203784584999084 7.513997673988342 14.203784584999084 C 5.317044377326965 14.203784584999084 4.923915386199951 18.10492616891861 3.382811665534973 18.10492616891861 C 3.382811665534973 18.10492616891861 2.825006365776062 18.10492616891861 2.825006365776062 18.10492616891861 C 2.268152952194214 18.10492616891861 1.939752221107483 17.74952757358551 2.005432367324829 17.169666707515717 C 2.005432367324829 17.169666707515717 2.661281943321228 12.78504353761673 2.661281943321228 12.78504353761673 C 2.726962089538574 12.075514495372772 3.054410934448242 11.784791469573975 3.7759406566619873 11.784791469573975 C 3.7759406566619873 11.784791469573975 20.630037307739258 11.784791469573975 20.630037307739258 11.784791469573975 C 21.351567029953003 11.784791469573975 21.645699858665466 12.075514495372772 21.744696021080017 12.78504353761673 C 21.744696021080017 12.78504353761673 22.432909727096558 17.201687455177307 22.432909727096558 17.201687455177307 C 22.530954003334045 17.74952757358551 22.170189142227173 18.10492616891861 21.61238384246826 18.10492616891861 C 21.61238384246826 18.10492616891861 21.055530428886414 18.10492616891861 21.055530428886414 18.10492616891861 C 19.514426708221436 18.10492616891861 19.087981700897217 14.203784584999084 16.8586642742157 14.203784584999084 C 16.8586642742157 14.203784584999084 15.153836131095886 14.203784584999084 15.153836131095886 14.203784584999084 C 15.153836131095886 14.203784584999084 15.153836131095886 31.16368454694748 15.153836131095886 31.16368454694748 C 15.153836131095886 32.647101163864136 16.563579559326172 33.033252358436584 16.563579559326172 33.93649107217789 C 16.563579559326172 33.93649107217789 16.563579559326172 34.06552517414093 16.563579559326172 34.06552517414093 C 16.563579559326172 34.45199340581894 16.267542958259583 34.678040862083435 15.77636969089508 34.678040862083435 C 15.77636969089508 34.678040862083435 8.595340371131897 34.678040862083435 8.595340371131897 34.678040862083435 C 8.1374831199646 34.678040862083435 7.84144651889801 34.45199340581894 7.84144651889801 34.06552517414093 Z M 42.2016818523407 33.93649107217789 C 42.2016818523407 33.93649107217789 42.2016818523407 34.06552517414093 42.2016818523407 34.06552517414093 C 42.2016818523407 34.45199340581894 41.907549023628235 34.678040862083435 41.41542387008667 34.678040862083435 C 41.41542387008667 34.678040862083435 34.89119601249695 34.678040862083435 34.89119601249695 34.678040862083435 C 34.39907085895538 34.678040862083435 34.103034257888794 34.45199340581894 34.103034257888794 34.06552517414093 C 34.103034257888794 34.06552517414093 34.103034257888794 33.93649107217789 34.103034257888794 33.93649107217789 C 34.103034257888794 33.000914573669434 35.349053263664246 32.614446341991425 35.28432500362396 31.131029725074768 C 35.28432500362396 31.131029725074768 34.95592427253723 25.13395583629608 34.95592427253723 25.13395583629608 C 34.7921998500824 22.19977742433548 34.1696662902832 21.00708383321762 32.66092669963837 21.00708383321762 C 31.21881914138794 21.00708383321762 30.529653549194336 22.26413595676422 30.529653549194336 24.134020805358887 C 30.529653549194336 24.134020805358887 30.529653549194336 31.16368454694748 30.529653549194336 31.16368454694748 C 30.529653549194336 32.647101163864136 32.00507712364197 33.000914573669434 32.00507712364197 33.93649107217789 C 32.00507712364197 33.93649107217789 32.00507712364197 34.06552517414093 32.00507712364197 34.06552517414093 C 32.00507712364197 34.45199340581894 31.676676392555237 34.678040862083435 31.21881914138794 34.678040862083435 C 31.21881914138794 34.678040862083435 24.103469967842102 34.678040862083435 24.103469967842102 34.678040862083435 C 23.64370894432068 34.678040862083435 23.349576115608215 34.45199340581894 23.349576115608215 34.06552517414093 C 23.349576115608215 34.06552517414093 23.349576115608215 33.93649107217789 23.349576115608215 33.93649107217789 C 23.349576115608215 33.000914573669434 24.791683673858643 32.647101163864136 24.791683673858643 31.16368454694748 C 24.791683673858643 31.16368454694748 24.791683673858643 16.203020572662354 24.791683673858643 16.203020572662354 C 24.791683673858643 14.686949133872986 23.18585169315338 14.525577247142792 23.18585169315338 13.62265557050705 C 23.18585169315338 13.62265557050705 23.18585169315338 13.525642216205597 23.18585169315338 13.525642216205597 C 23.18585169315338 13.139173984527588 23.479984521865845 12.81738132238388 23.938793659210205 12.623671650886536 C 23.938793659210205 12.623671650886536 29.11991012096405 10.36636745929718 29.11991012096405 10.36636745929718 C 29.873803973197937 10.044257760047913 30.365929126739502 10.301374852657318 30.365929126739502 11.043241679668427 C 30.365929126739502 11.043241679668427 30.365929126739502 20.394885182380676 30.365929126739502 20.394885182380676 C 31.315911531448364 19.42665386199951 32.69424271583557 18.87881374359131 34.36670672893524 18.87881374359131 C 37.218557715415955 18.87881374359131 40.235085010528564 20.457975566387177 40.59584987163544 25.327031433582306 C 40.59584987163544 25.327031433582306 41.022294878959656 31.131029725074768 41.022294878959656 31.131029725074768 C 41.152703285217285 32.614446341991425 42.2016818523407 33.000914573669434 42.2016818523407 33.93649107217789 Z M 58.3323450088501 30.03408133983612 C 58.23525261878967 31.808220982551575 56.365748167037964 35.0001505613327 51.64439272880554 35.0001505613327 C 46.790725111961365 35.0001505613327 43.3487046957016 31.711524665355682 43.3487046957016 26.842468798160553 C 43.3487046957016 22.038405537605286 47.08580982685089 18.91146856546402 51.48066830635071 18.87881374359131 C 55.3824497461319 18.846475958824158 58.00489616394043 20.716360807418823 58.00489616394043 23.553842902183533 C 58.00489616394043 25.811147093772888 55.84125888347626 27.681031942367554 52.7590514421463 28.164513528347015 C 51.6120285987854 28.35822319984436 50.46310198307037 28.422581732273102 49.47980356216431 28.39056098461151 C 50.332693576812744 30.00301170349121 51.775753021240234 31.002312660217285 53.61194145679474 31.002312660217285 C 55.25013756752014 31.002312660217285 56.5294725894928 30.35745918750763 57.120593905448914 29.58325457572937 C 57.57845115661621 29.13242781162262 58.3656610250473 29.325820446014404 58.3323450088501 30.03408133983612 Z M 48.562185287475586 24.19869637489319 C 48.562185287475586 25.06959730386734 48.66118144989014 25.90720933675766 48.85727000236511 26.68109691143036 C 49.47980356216431 26.71343469619751 50.06997299194336 26.68109691143036 50.49736988544464 26.616738379001617 C 51.938525557518005 26.35898721218109 52.72668731212616 25.359052181243896 52.72668731212616 23.135353922843933 C 52.693371295928955 21.716295838356018 51.87379729747772 20.58732670545578 50.791502714157104 20.58732670545578 C 49.447439432144165 20.58732670545578 48.562185287475586 22.070743322372437 48.562185287475586 24.19869637489319 Z M 88.49666607379913 23.586180686950684 C 88.49666607379913 23.586180686950684 88.49666607379913 23.715531826019287 88.49666607379913 23.715531826019287 C 88.49666607379913 24.61781942844391 86.89083409309387 25.00492173433304 86.89083409309387 26.520993173122406 C 86.89083409309387 26.520993173122406 86.89083409309387 34.13020074367523 86.89083409309387 34.13020074367523 C 86.89083409309387 34.58134454488754 86.5633852481842 35.0001505613327 86.07126009464264 35.0001505613327 C 85.77617537975311 35.0001505613327 85.41541051864624 34.93579202890396 85.12032580375671 34.645703077316284 C 85.12032580375671 34.645703077316284 83.77626252174377 33.13026571273804 83.77626252174377 33.13026571273804 C 82.26752293109894 34.290621519088745 79.80784904956818 35.0001505613327 77.90598046779633 35.0001505613327 C 70.69353890419006 35.0001505613327 66.2663162946701 29.486241221427917 66.2663162946701 23.198761343955994 C 66.2663162946701 15.879642724990845 71.90529000759125 11.494385480880737 77.34912705421448 11.494385480880737 C 82.92337250709534 11.494385480880737 86.98887836933136 14.171763837337494 86.98887836933136 17.460072696208954 C 86.98887836933136 19.039551556110382 85.97226393222809 20.071507334709167 84.36548006534576 20.071507334709167 C 80.16956579685211 20.071507334709167 79.6117604970932 13.784027457237244 75.87465536594391 13.784027457237244 C 73.61107003688812 13.784027457237244 72.06996631622314 16.170365750789642 72.06996631622314 19.39431607723236 C 72.06996631622314 25.714450776576996 75.41394245624542 30.77594816684723 79.51276433467865 30.77594816684723 C 80.33329021930695 30.77594816684723 80.923459649086 30.680202960968018 81.34895277023315 30.42181771993637 C 81.34895277023315 30.42181771993637 81.34895277023315 26.488338351249695 81.34895277023315 26.488338351249695 C 81.34895277023315 25.00492173433304 79.54703223705292 24.61781942844391 79.54703223705292 23.683194041252136 C 79.54703223705292 23.683194041252136 79.54703223705292 23.553842902183533 79.54703223705292 23.553842902183533 C 79.54703223705292 23.198761343955994 79.90684521198273 22.941327214241028 80.39801847934723 22.941327214241028 C 80.39801847934723 22.941327214241028 87.70945620536804 22.97366499900818 87.70945620536804 22.97366499900818 C 88.16921722888947 22.97366499900818 88.49666607379913 23.198761343955994 88.49666607379913 23.586180686950684 Z M 107.02037107944489 33.80713993310928 C 107.02037107944489 34.645703077316284 105.1194543838501 34.8707994222641 103.31563007831573 34.8707994222641 C 101.34808135032654 34.8707994222641 100.39714705944061 34.48433119058609 100.13537836074829 33.32365834712982 C 99.44621276855469 34.258283734321594 98.13546550273895 35.0001505613327 95.97087633609772 35.0001505613327 C 92.4631757736206 35.0001505613327 89.77409732341766 33.420671701431274 89.77409732341766 30.098756909370422 C 89.77409732341766 26.842468798160553 92.5612200498581 25.166293621063232 95.67674350738525 25.166293621063232 C 97.05317091941833 25.166293621063232 98.1678296327591 25.4884033203125 98.98740363121033 25.97188490629196 C 98.98740363121033 25.97188490629196 98.98740363121033 25.87613970041275 98.98740363121033 25.87613970041275 C 98.59427464008331 22.070743322372437 98.36487007141113 20.425954818725586 96.66004192829132 20.425954818725586 C 94.39645659923553 20.425954818725586 95.31597864627838 24.74653649330139 92.39749562740326 24.74653649330139 C 91.02011632919312 24.74653649330139 90.10154616832733 23.90797334909439 90.10154616832733 22.65092122554779 C 90.10154616832733 20.007148802280426 93.31511390209198 18.87881374359131 96.66004192829132 18.87881374359131 C 101.05394852161407 18.87881374359131 104.10283994674683 21.39355206489563 104.62637734413147 25.391389966011047 C 104.62637734413147 25.391389966011047 105.34790706634521 31.16368454694748 105.34790706634521 31.16368454694748 C 105.64299178123474 33.453009486198425 107.02037107944489 32.90421825647354 107.02037107944489 33.80713993310928 Z M 99.47952878475189 31.034333407878876 C 99.47952878475189 31.034333407878876 99.3481684923172 29.55091679096222 99.3481684923172 29.55091679096222 C 99.11876392364502 27.616673409938812 98.26682579517365 26.874806582927704 97.31589150428772 26.874806582927704 C 96.33164119720459 26.874806582927704 95.64342749118805 27.745390474796295 95.64342749118805 29.067435204982758 C 95.64342749118805 31.357394218444824 96.43063735961914 33.35631316900253 97.77470064163208 33.35631316900253 C 98.8569952249527 33.35631316900253 99.47952878475189 32.13033068180084 99.47952878475189 31.034333407878876 Z M 121.90501523017883 22.070743322372437 C 121.90501523017883 23.683194041252136 121.28248167037964 25.10193508863449 119.38156497478485 25.10193508863449 C 116.39740180969238 25.10193508863449 117.74146509170532 22.070743322372437 116.10231709480286 22.070743322372437 C 115.05333852767944 22.070743322372437 114.88866221904755 23.747552573680878 114.88866221904755 25.166293621063232 C 114.88866221904755 25.166293621063232 114.88866221904755 31.16368454694748 114.88866221904755 31.16368454694748 C 114.88866221904755 32.647101163864136 116.62680637836456 33.033252358436584 116.62680637836456 33.93649107217789 C 116.62680637836456 33.93649107217789 116.62680637836456 34.06552517414093 116.62680637836456 34.06552517414093 C 116.62680637836456 34.45199340581894 116.29840564727783 34.678040862083435 115.83959650993347 34.678040862083435 C 115.83959650993347 34.678040862083435 108.79087936878204 34.678040862083435 108.79087936878204 34.678040862083435 C 108.33207023143768 34.678040862083435 108.00366950035095 34.45199340581894 108.00366950035095 34.06552517414093 C 108.00366950035095 34.06552517414093 108.00366950035095 33.93649107217789 108.00366950035095 33.93649107217789 C 108.00366950035095 33.033252358436584 109.31536865234375 32.647101163864136 109.31536865234375 31.16368454694748 C 109.31536865234375 31.16368454694748 109.31536865234375 24.74653649330139 109.31536865234375 24.74653649330139 C 109.31536865234375 23.231099128723145 107.74190080165863 23.102699100971222 107.74190080165863 22.16743963956833 C 107.74190080165863 22.16743963956833 107.74190080165863 22.070743322372437 107.74190080165863 22.070743322372437 C 107.74190080165863 21.684275090694427 108.00366950035095 21.39355206489563 108.49484276771545 21.135166823863983 C 108.49484276771545 21.135166823863983 113.11910581588745 19.007847845554352 113.11910581588745 19.007847845554352 C 113.97104394435883 18.620428502559662 114.2984927892685 19.071572303771973 114.2984927892685 19.71642577648163 C 114.2984927892685 19.71642577648163 114.2984927892685 22.070743322372437 114.2984927892685 22.070743322372437 C 115.02002251148224 20.007148802280426 116.56112623214722 18.87881374359131 118.82375967502594 18.87881374359131 C 120.75799238681793 18.87881374359131 121.90501523017883 20.265217006206512 121.90501523017883 22.070743322372437 Z M 141.7090071439743 33.96851181983948 C 141.7090071439743 33.96851181983948 141.7090071439743 34.09786295890808 141.7090071439743 34.09786295890808 C 141.7090071439743 34.48433119058609 141.38060641288757 34.710061609745026 140.92274916172028 34.710061609745026 C 140.92274916172028 34.710061609745026 134.3642534017563 34.710061609745026 134.3642534017563 34.710061609745026 C 133.87308013439178 34.710061609745026 133.57799541950226 34.48433119058609 133.57799541950226 34.09786295890808 C 133.57799541950226 34.09786295890808 133.57799541950226 33.96851181983948 133.57799541950226 33.96851181983948 C 133.57799541950226 33.033252358436584 134.85637855529785 32.647101163864136 134.7573823928833 31.16368454694748 C 134.7573823928833 31.16368454694748 134.42993354797363 25.391389966011047 134.42993354797363 25.391389966011047 C 134.2662091255188 22.19977742433548 133.64177179336548 21.00708383321762 132.1673001050949 21.00708383321762 C 130.72519254684448 21.00708383321762 130.03602695465088 22.26413595676422 130.03602695465088 24.134020805358887 C 130.03602695465088 24.134020805358887 130.03602695465088 31.16368454694748 130.03602695465088 31.16368454694748 C 130.03602695465088 32.647101163864136 131.47908639907837 33.033252358436584 131.47908639907837 33.96851181983948 C 131.47908639907837 33.96851181983948 131.47908639907837 34.09786295890808 131.47908639907837 34.09786295890808 C 131.47908639907837 34.48433119058609 131.18400168418884 34.710061609745026 130.69187653064728 34.710061609745026 C 130.69187653064728 34.710061609745026 123.60984337329865 34.710061609745026 123.60984337329865 34.710061609745026 C 123.11771821975708 34.710061609745026 122.82263350486755 34.48433119058609 122.82263350486755 34.09786295890808 C 122.82263350486755 34.09786295890808 122.82263350486755 33.96851181983948 122.82263350486755 33.96851181983948 C 122.82263350486755 33.033252358436584 124.26474106311798 32.647101163864136 124.26474106311798 31.16368454694748 C 124.26474106311798 31.16368454694748 124.26474106311798 24.811212062835693 124.26474106311798 24.811212062835693 C 124.26474106311798 23.263436913490295 122.52754878997803 23.07067835330963 122.52754878997803 22.13541889190674 C 122.52754878997803 22.13541889190674 122.52754878997803 22.038405537605286 122.52754878997803 22.038405537605286 C 122.52754878997803 21.651937305927277 122.8549976348877 21.45791059732437 123.31475865840912 21.232180178165436 C 123.31475865840912 21.232180178165436 127.90475380420685 19.007847845554352 127.90475380420685 19.007847845554352 C 128.72527968883514 18.58809071779251 129.1507728099823 19.136564910411835 129.1507728099823 19.78110134601593 C 129.1507728099823 19.78110134601593 129.1507728099823 21.296538710594177 129.1507728099823 21.296538710594177 C 130.03602695465088 19.74876356124878 131.6761268377304 18.87881374359131 133.83976411819458 18.87881374359131 C 136.69256699085236 18.87881374359131 139.7081423997879 20.457975566387177 140.10222327709198 25.585416674613953 C 140.10222327709198 25.585416674613953 140.5286682844162 31.16368454694748 140.5286682844162 31.16368454694748 C 140.62576067447662 32.647101163864136 141.7090071439743 33.033252358436584 141.7090071439743 33.96851181983948 Z M 143.01880252361298 34.06552517414093 C 143.01880252361298 34.06552517414093 143.01880252361298 33.93649107217789 143.01880252361298 33.93649107217789 C 143.01880252361298 33.000914573669434 144.33145356178284 32.614446341991425 144.33145356178284 31.131029725074768 C 144.33145356178284 31.131029725074768 144.33145356178284 25.00492173433304 144.33145356178284 25.00492173433304 C 144.33145356178284 23.521822154521942 143.01880252361298 23.07067835330963 143.01880252361298 22.296473741531372 C 143.01880252361298 22.296473741531372 143.01880252361298 22.16743963956833 143.01880252361298 22.16743963956833 C 143.01880252361298 21.81235808134079 143.3138872385025 21.651937305927277 143.77364826202393 21.42588984966278 C 143.77364826202393 21.42588984966278 148.72440826892853 19.039551556110382 148.72440826892853 19.039551556110382 C 149.64202654361725 18.58809071779251 150.19983184337616 19.103910088539124 150.19983184337616 19.71642577648163 C 150.19983184337616 19.71642577648163 150.19983184337616 31.131029725074768 150.19983184337616 31.131029725074768 C 150.19983184337616 32.614446341991425 151.6752554178238 33.000914573669434 151.6752554178238 33.93649107217789 C 151.6752554178238 33.93649107217789 151.6752554178238 34.06552517414093 151.6752554178238 34.06552517414093 C 151.6752554178238 34.45199340581894 151.34780657291412 34.678040862083435 150.85568141937256 34.678040862083435 C 150.85568141937256 34.678040862083435 143.80601239204407 34.678040862083435 143.80601239204407 34.678040862083435 C 143.3138872385025 34.678040862083435 143.01880252361298 34.45199340581894 143.01880252361298 34.06552517414093 Z M 143.54329180717468 14.074750483036041 C 143.54329180717468 12.236252307891846 145.05203139781952 10.849532008171082 147.31466484069824 10.849532008171082 C 149.54398226737976 10.849532008171082 151.05176997184753 12.236252307891846 151.05176997184753 14.074750483036041 C 151.05176997184753 15.879642724990845 149.54398226737976 17.29870080947876 147.31466484069824 17.29870080947876 C 145.05203139781952 17.29870080947876 143.54329180717468 15.879642724990845 143.54329180717468 14.074750483036041 Z M 153.01931869983673 31.19570529460907 C 153.01931869983673 29.744626462459564 154.03498125076294 29.13242781162262 155.3476322889328 29.13242781162262 C 158.62592828273773 29.13242781162262 157.51126956939697 33.54875469207764 160.23271214962006 33.54875469207764 C 161.21601057052612 33.54875469207764 162.00322043895721 33.065273106098175 162.00322043895721 31.775883197784424 C 162.00322043895721 27.55199784040451 153.31440341472626 30.03408133983612 153.31440341472626 23.77989035844803 C 153.31440341472626 20.910070478916168 156.13389027118683 18.87881374359131 160.23271214962006 18.87881374359131 C 164.39721417427063 18.87881374359131 167.1186567544937 20.65168523788452 167.1186567544937 22.747617542743683 C 167.1186567544937 23.87626963853836 166.13345456123352 24.71419870853424 164.92170345783234 24.71419870853424 C 161.74049985408783 24.71419870853424 162.7904303073883 20.362230360507965 160.52779686450958 20.362230360507965 C 159.51023054122925 20.362230360507965 158.98574125766754 21.264200925827026 158.98574125766754 22.19977742433548 C 158.98574125766754 26.616738379001617 167.38042545318604 24.29570972919464 167.38042545318604 30.228108048439026 C 167.38042545318604 32.90421825647354 164.78939127922058 34.96781277656555 160.23271214962006 34.96781277656555 C 156.1015261411667 34.96781277656555 153.01931869983673 33.453009486198425 153.01931869983673 31.19570529460907 Z M 187.60991048812866 33.93649107217789 C 187.60991048812866 33.93649107217789 187.60991048812866 34.06552517414093 187.60991048812866 34.06552517414093 C 187.60991048812866 34.45199340581894 187.31482577323914 34.678040862083435 186.82365250587463 34.678040862083435 C 186.82365250587463 34.678040862083435 180.2975208759308 34.678040862083435 180.2975208759308 34.678040862083435 C 179.80729949474335 34.678040862083435 179.5103110074997 34.45199340581894 179.5103110074997 34.06552517414093 C 179.5103110074997 34.06552517414093 179.5103110074997 33.93649107217789 179.5103110074997 33.93649107217789 C 179.5103110074997 33.000914573669434 180.7572818994522 32.614446341991425 180.69160175323486 31.131029725074768 C 180.69160175323486 31.131029725074768 180.3641529083252 25.13395583629608 180.3641529083252 25.13395583629608 C 180.1994765996933 22.19977742433548 179.57599115371704 21.00708383321762 178.06915533542633 21.00708383321762 C 176.62609589099884 21.00708383321762 175.9378821849823 22.26413595676422 175.9378821849823 24.134020805358887 C 175.9378821849823 24.134020805358887 175.9378821849823 31.16368454694748 175.9378821849823 31.16368454694748 C 175.9378821849823 32.647101163864136 177.41330575942993 33.000914573669434 177.41330575942993 33.93649107217789 C 177.41330575942993 33.93649107217789 177.41330575942993 34.06552517414093 177.41330575942993 34.06552517414093 C 177.41330575942993 34.45199340581894 177.0849050283432 34.678040862083435 176.62609589099884 34.678040862083435 C 176.62609589099884 34.678040862083435 169.510746717453 34.678040862083435 169.510746717453 34.678040862083435 C 169.05098569393158 34.678040862083435 168.75685286521912 34.45199340581894 168.75685286521912 34.06552517414093 C 168.75685286521912 34.06552517414093 168.75685286521912 33.93649107217789 168.75685286521912 33.93649107217789 C 168.75685286521912 33.000914573669434 170.19896042346954 32.647101163864136 170.19896042346954 31.16368454694748 C 170.19896042346954 31.16368454694748 170.19896042346954 16.203020572662354 170.19896042346954 16.203020572662354 C 170.19896042346954 14.686949133872986 168.59312844276428 14.525577247142792 168.59312844276428 13.62265557050705 C 168.59312844276428 13.62265557050705 168.59312844276428 13.525642216205597 168.59312844276428 13.525642216205597 C 168.59312844276428 13.139173984527588 168.88726127147675 12.81738132238388 169.34702229499817 12.623671650886536 C 169.34702229499817 12.623671650886536 174.52718687057495 10.36636745929718 174.52718687057495 10.36636745929718 C 175.28108072280884 10.044257760047913 175.7732058763504 10.301374852657318 175.7732058763504 11.043241679668427 C 175.7732058763504 11.043241679668427 175.7732058763504 20.394885182380676 175.7732058763504 20.394885182380676 C 176.72414016723633 19.42665386199951 178.1005675792694 18.87881374359131 179.77398347854614 18.87881374359131 C 182.62583446502686 18.87881374359131 185.64236176013947 20.457975566387177 186.00312662124634 25.327031433582306 C 186.00312662124634 25.327031433582306 186.43052351474762 31.131029725074768 186.43052351474762 31.131029725074768 C 186.5599800348282 32.614446341991425 187.60991048812866 33.000914573669434 187.60991048812866 33.93649107217789 Z M 332.4422479867935 7.125931203365326 C 332.4422479867935 11.132329106330872 329.1382510662079 14.380374252796173 325.0641782283783 14.380374252796173 C 325.0641782283783 14.380374252796173 322.6054562330246 14.380374252796173 322.6054562330246 14.380374252796173 C 322.6054562330246 14.380374252796173 322.6054562330246 11.961698174476624 322.6054562330246 11.961698174476624 C 322.6054562330246 7.955617308616638 325.90850126743317 4.707255125045776 329.98257410526276 4.707255125045776 C 329.98257410526276 4.707255125045776 332.4422479867935 4.707255125045776 332.4422479867935 4.707255125045776 C 332.4422479867935 4.707255125045776 332.4422479867935 7.125931203365326 332.4422479867935 7.125931203365326 Z M 317.09308338165283 5.794375360012054 C 317.09308338165283 6.859937071800232 317.97452998161316 7.7267165184021 319.05777645111084 7.7267165184021 C 320.1410229206085 7.7267165184021 321.02246952056885 6.859937071800232 321.02246952056885 5.794375360012054 C 321.02246952056885 4.728813648223877 320.1410229206085 3.8620342016220093 319.05777645111084 3.8620342016220093 C 317.97452998161316 3.8620342016220093 317.09308338165283 4.728813648223877 317.09308338165283 5.794375360012054 Z M 334.19276666641235 13.920987486839294 C 334.19276666641235 14.665390610694885 334.8086370229721 15.270614445209503 335.5653865337372 15.270614445209503 C 336.32213604450226 15.270614445209503 336.938006401062 14.665390610694885 336.938006401062 13.920987486839294 C 336.938006401062 13.176901400089264 336.32213604450226 12.571677565574646 335.5653865337372 12.571677565574646 C 334.8086370229721 12.571677565574646 334.19276666641235 13.176901400089264 334.19276666641235 13.920987486839294 Z M 339.5794905424118 9.93646514415741 C 339.5794905424118 13.032966554164886 342.1410162448883 15.551826357841492 345.28985571861267 15.551826357841492 C 348.43869519233704 15.551826357841492 351.00022089481354 13.032966554164886 351.00022089481354 9.93646514415741 C 351.00022089481354 6.839963734149933 348.43869519233704 4.321103930473328 345.28985571861267 4.321103930473328 C 342.1410162448883 4.321103930473328 339.5794905424118 6.839963734149933 339.5794905424118 9.93646514415741 Z M 345.28985571861267 6.816820025444031 C 347.03942251205444 6.816820025444031 348.4624923467636 8.216221809387207 348.4624923467636 9.93646514415741 C 348.4624923467636 11.656708478927612 347.03942251205444 13.056110262870789 345.28985571861267 13.056110262870789 C 343.5402889251709 13.056110262870789 342.1181709766388 11.656708478927612 342.1181709766388 9.93646514415741 C 342.1181709766388 8.216221809387207 343.5402889251709 6.816820025444031 345.28985571861267 6.816820025444031 Z M 345.28985571861267 11.808252215385437 C 346.33978617191315 11.808252215385437 347.1926761865616 10.968737959861755 347.1926761865616 9.93646514415741 C 347.1926761865616 8.904192328453064 346.33978617191315 8.064678072929382 345.28985571861267 8.064678072929382 C 344.24087715148926 8.064678072929382 343.38703525066376 8.904192328453064 343.38703525066376 9.93646514415741 C 343.38703525066376 10.968737959861755 344.24087715148926 11.808252215385437 345.28985571861267 11.808252215385437 Z M 282.4644161462784 6.48107773065567 C 282.4482340812683 6.689371109008789 282.4330039024353 6.897347450256348 282.4330039024353 7.10944527387619 C 282.4330039024353 11.725188493728638 286.19676184654236 15.46686041355133 290.8400626182556 15.46686041355133 C 295.48431527614594 15.46686041355133 299.2499769926071 11.725188493728638 299.2499769926071 7.10944527387619 C 299.2499769926071 6.897347450256348 299.23284304142 6.689371109008789 299.217612862587 6.48107773065567 C 299.217612862587 6.48107773065567 282.4644161462784 6.48107773065567 282.4644161462784 6.48107773065567 Z M 315.3168637752533 12.800261318683624 C 315.31305623054504 15.386015951633453 313.1827349662781 17.480997145175934 310.5536253452301 17.483850479125977 C 310.5536253452301 17.483850479125977 308.2414938211441 17.483850479125977 308.2414938211441 17.483850479125977 C 305.61238420009613 17.480997145175934 303.48206293582916 15.386015951633453 303.479207277298 12.800261318683624 C 303.479207277298 12.800261318683624 303.479207277298 12.466738283634186 303.479207277298 12.466738283634186 C 303.479207277298 8.948260486125946 309.3970836400986 1.9981730580329895 309.3970836400986 1.9981730580329895 C 309.3970836400986 1.9981730580329895 315.3168637752533 9.13023978471756 315.3168637752533 12.466738283634186 C 315.3168637752533 12.466738283634186 315.3168637752533 12.800261318683624 315.3168637752533 12.800261318683624 Z"/></g></svg>