<svg version="1.1" xmlns="http://www.w3.org/2000/svg" xmlns:xlink="http://www.w3.org/1999/xlink" width="24" height="18"><defs/><g><path fill="rgb(255,255,255)" stroke="none" paint-order="stroke fill markers" fill-rule="evenodd" d=" M 21.812241435050964 4.255847156047821 C 21.812241435050964 4.255847156047821 21.624719858169556 2.795891284942627 21.000282526016235 2.132015585899353 C 20.2501962184906 1.2693576216697693 19.375412821769714 1.2693576216697693 18.999417781829834 1.2027798295021057 C 16.186594128608704 1.0036805272102356 12.000198721885681 1.0036805272102356 12.000198721885681 1.0036805272102356 C 12.000198721885681 1.0036805272102356 12.000198721885681 1.0036805272102356 12.000198721885681 1.0036805272102356 C 12.000198721885681 1.0036805272102356 7.812851428985596 1.0036805272102356 5.000027775764465 1.2027798295021057 C 4.624984622001648 1.2693576216697693 3.7492493391036987 1.2693576216697693 3.000114917755127 2.132015585899353 C 2.3756775856018066 2.795891284942627 2.188156008720398 4.255847156047821 2.188156008720398 4.255847156047821 C 2.188156008720398 4.255847156047821 1.9996825456619263 5.981480121612549 1.9996825456619263 7.706796050071716 C 1.9996825456619263 7.706796050071716 1.9996825456619263 9.299907505512238 1.9996825456619263 9.299907505512238 C 1.9996825456619263 11.025540471076965 2.188156008720398 12.750856399536133 2.188156008720398 12.750856399536133 C 2.188156008720398 12.750856399536133 2.3756775856018066 14.211129307746887 3.000114917755127 14.8746879696846 C 3.7492493391036987 15.737345933914185 4.750633597373962 15.671085178852081 5.187549352645874 15.803923726081848 C 6.813370943069458 15.936445236206055 12.000198721885681 16.00334006547928 12.000198721885681 16.00334006547928 C 12.000198721885681 16.00334006547928 16.186594128608704 16.00334006547928 18.999417781829834 15.803923726081848 C 19.375412821769714 15.737345933914185 20.2501962184906 15.737345933914185 21.000282526016235 14.8746879696846 C 21.624719858169556 14.211129307746887 21.812241435050964 12.750856399536133 21.812241435050964 12.750856399536133 C 21.812241435050964 12.750856399536133 22.000714898109436 11.025540471076965 22.000714898109436 9.299907505512238 C 22.000714898109436 9.299907505512238 22.000714898109436 7.706796050071716 22.000714898109436 7.706796050071716 C 22.000714898109436 5.981480121612549 21.812241435050964 4.255847156047821 21.812241435050964 4.255847156047821 Z M 9.937461376190186 11.290900528430939 C 9.937461376190186 11.290900528430939 9.937461376190186 5.317604422569275 9.937461376190186 5.317604422569275 C 9.937461376190186 5.317604422569275 15.31276261806488 8.304410994052887 15.31276261806488 8.304410994052887 C 15.31276261806488 8.304410994052887 9.937461376190186 11.290900528430939 9.937461376190186 11.290900528430939 Z"/></g></svg>